<?xml version="1.0" encoding="utf-8"?>
<svg version="1.1" xmlns="http://www.w3.org/2000/svg" xmlns:xlink="http://www.w3.org/1999/xlink" x="0px" y="0px"
	 viewBox="0 0 489.5 489.5" style="enable-background:new 0 0 489.5 489.5;" xml:space="preserve">
<style type="text/css">
	.st0{fill:#F7931D;}
</style>
<path class="st0" d="M138.9,205.9c-7-7.1-18.4-7.1-25.5-0.1s-7.1,18.4-0.1,25.5l85.4,86c3.4,3.4,7.9,5.3,12.7,5.3c0,0,0,0,0.1,0
	c4.8,0,9.3-1.9,12.7-5.2l260-258.6c7-7,7.1-18.4,0.1-25.5s-18.4-7.1-25.5-0.1l-91.9,91.3C327.8,76.4,269,48.2,206.5,48.2
	c-29.2,0-57.4,6-83.8,17.7C97.2,77.3,74.5,93.4,55.4,114c-19.1,20.5-33.6,44.2-43.1,70.4c-9.9,27.3-13.9,56-11.8,85.4
	C7.6,371.5,89.7,453.7,191.4,461c5,0.4,10.1,0.5,15.1,0.5c47.3,0,93-16,129.8-45.8c40.2-32.4,66.6-78.3,74.5-129.1
	c1.6-10.4,2.4-21.1,2.4-31.8c0-9.9-8.1-18-18-18s-18,8.1-18,18c0,8.8-0.7,17.6-2,26.3c-13.4,87-93,150.2-181.2,143.9
	c-83.9-6-151.7-73.8-157.6-157.8c-3.4-48,12.7-93.7,45.3-128.7c32.2-34.5,77.7-54.3,124.8-54.3c52.8,0,102.4,24.5,134.7,65.9
	l-129.6,129L138.9,205.9z"/>
</svg>
