<svg xmlns="http://www.w3.org/2000/svg" viewBox="0 0 413.5 174.7"><title>improve</title><g id="Layer_2" data-name="Layer 2"><g id="_"><ellipse cx="285.7" cy="171" rx="38.1" ry="3.1" fill="#83bbca"/><ellipse cx="242.9" cy="171.9" rx="27.1" ry="2.2" fill="#83bbca"/><ellipse cx="204.5" cy="171.7" rx="38.1" ry="3.1" fill="#83bbca"/><path d="M288.1,19.5h.3a9.8,9.8,0,0,1,5.9-1.1.6.6,0,1,0,.1-1.3,11.1,11.1,0,0,0-6.6,1.3.6.6,0,0,0,.3,1.2Z" fill="#8d5254"/><path d="M281.2,19.5a.6.6,0,0,0,.3-1.2,11.2,11.2,0,0,0-6.6-1.3.6.6,0,0,0-.6.7.6.6,0,0,0,.7.6,9.8,9.8,0,0,1,5.9,1.1Z" fill="#8d5254"/><path d="M269.7,107.5h-1.1a2.9,2.9,0,0,1-3.2-2.3l-.4-2a5.3,5.3,0,0,1,.3-3.3l.6-1.4,1.5-34.3,4.8-3.7-.7,44.8A2.1,2.1,0,0,1,269.7,107.5Z" fill="#ffce9b"/><polygon points="300.7 158.7 292.6 158.7 283.3 108.3 281.8 106 281.1 158.7 272.2 158.7 269.5 108.2 269.5 92.1 297.4 92.1 297.9 123.4 299.6 133.8 300.7 158.7" fill="#7e3340"/><path d="M273,44.3l1.2-.5-3.4,52.8-4.6-.9h0a7.7,7.7,0,0,1-1.7-6l2.8-20.3.2-16.6A9.4,9.4,0,0,1,273,44.3Z" fill="#7e3340"/><path d="M294.1,98.7H272.9a4.4,4.4,0,0,1-4.4-4.6l1.8-35.4-1-4.3a9.4,9.4,0,0,1,5.3-10.7l5.2-2.3,10.4-.2,7.3,1.6a10.5,10.5,0,0,1,8.2,9.3l1.9,19.8-.4,23.7-5.4-.3h0a12.8,12.8,0,0,1-2.3-7l-.3-14.4-1.8-14.8,1.2,35.2A4.4,4.4,0,0,1,294.1,98.7Z" fill="#bc3340"/><polygon points="321.6 73.1 279.7 65.6 281.2 56.3 323.3 63.7 321.6 73.1" fill="#edca7e"/><polygon points="282.9 66.2 279.6 65.6 281.2 56.3 284.5 56.9 282.9 66.2" fill="#ffe093"/><path d="M297.5,42.7h0a10.5,10.5,0,0,1,8.2,9.3l1.9,19.8-.4,23.7-5.4-.3h0a12.7,12.7,0,0,1-2.3-7l-.3-14.4-1.8-14.8Z" fill="#bc3340"/><path d="M290.5,43.1c-5.9,4.2-10.1,6-10.7,2.5V36.1h10.7Z" fill="#ffce9b"/><path d="M279.8,42.4v-5h10.7v3A19.5,19.5,0,0,1,279.8,42.4Z" fill="#e1ac81"/><ellipse cx="272.4" cy="24" rx="2.9" ry="4.3" transform="translate(0 47.9) rotate(-10)" fill="#ffce9b"/><ellipse cx="296.6" cy="24" rx="4.3" ry="2.9" transform="translate(221.2 311.8) rotate(-80)" fill="#ffce9b"/><path d="M281.8,10.1h5.4a9.4,9.4,0,0,1,9.4,9.4V37.8a0,0,0,0,1,0,0H272.4a0,0,0,0,1,0,0V19.5A9.4,9.4,0,0,1,281.8,10.1Z" transform="translate(569 47.9) rotate(180)" fill="#ffce9b"/><path d="M272.4,10.1V30.4a9.4,9.4,0,0,0,9.4,9.4h5.4a9.4,9.4,0,0,0,9.4-9.4V10.1H295V24.5a12.8,12.8,0,0,1-1.1,5.2l-1,2.1-1.6-2.6a4.5,4.5,0,0,0-3.8-2.1h-5.8a4.5,4.5,0,0,0-3.9,2.3l-1.3,2.4-1-1.8A12.8,12.8,0,0,1,274,24V10.1Zm6.8,20.1h0a1.7,1.7,0,0,1,1.7-1.7h7.3a1.7,1.7,0,0,1,1.7,1.7h0a4.3,4.3,0,0,1-4.3,4.3h-2A4.3,4.3,0,0,1,279.2,30.2Z" fill="#c57d4f"/><path d="M298.5,115.6h-.1a.7.7,0,0,1-.5-.8c.6-3.7,1.3-7.5,2.1-11.2a.7.7,0,0,1,1.3.3c-.7,3.7-1.4,7.4-2.1,11.1A.7.7,0,0,1,298.5,115.6Z" fill="#693e4b"/><path d="M312.1,116.1a.7.7,0,0,1-.6-.4l-4.6-9.8a11.3,11.3,0,0,0-1.8-3,3.3,3.3,0,0,0-2.7-1.2.7.7,0,0,1-.2-1.3,4.6,4.6,0,0,1,3.8,1.6,12.5,12.5,0,0,1,2,3.3l4.6,9.8a.7.7,0,0,1-.3.9Z" fill="#693e4b"/><path d="M305.9,114.1a.7.7,0,0,1-.7-.6c-.2-2.4-.4-4.9-.8-7.3a9.8,9.8,0,0,0-.9-3.1.7.7,0,0,1,1.2-.6,11.1,11.1,0,0,1,1,3.5c.4,2.4.7,4.9.8,7.4a.7.7,0,0,1-.6.7Z" fill="#693e4b"/><path d="M304.3,105.3h-1.7a2.9,2.9,0,0,1-2.9-2.7V101a2.5,2.5,0,0,1,.8-2.1l1.7-1.6-.2-2.2,5.4.3.3,6.5A3.2,3.2,0,0,1,304.3,105.3Z" fill="#ffce9b"/><polygon points="299.3 163.1 293.5 163.1 292.6 158.7 299.3 158.7 299.3 163.1" fill="#ffce9b"/><polygon points="280.9 163.1 280 168.9 271.4 164.9 274.1 161.4 274.1 158.7 280.9 158.7 280.9 163.1" fill="#ffce9b"/><ellipse cx="291.1" cy="23" rx="1.6" ry="2.3" fill="#8d5254"/><ellipse cx="278.2" cy="23" rx="1.6" ry="2.3" fill="#8d5254"/><path d="M284.7,31.8a9.2,9.2,0,0,0,4.5-1.3.6.6,0,0,0-.6-1.1,7.5,7.5,0,0,1-7.8,0,.6.6,0,1,0-.6,1.1A9.3,9.3,0,0,0,284.7,31.8Z" fill="#e1ac81"/><path d="M297.4,25.3a3.8,3.8,0,0,1-.8,2.3h0l-2.4-16.7-3.1.9-16.9,3.1-1.8,12.7h0a5.6,5.6,0,0,1-.8-2.8V19.7l-.9-2.8a14.8,14.8,0,0,1,.2-9.4h0a10.5,10.5,0,0,1,8-6.8l3.2-.6a11.2,11.2,0,0,1,10.6,3.9l.6.7h0a5.9,5.9,0,0,1,5.1,5h0a16.2,16.2,0,0,1-.2,5.6l-.9,4.1Z" fill="#c57d4f"/><rect x="288" y="17.3" width="5.8" height="1.9" rx="0.7" ry="0.7" transform="translate(581.7 36.5) rotate(180)" fill="#c57d4f"/><rect x="275.4" y="17.3" width="6" height="1.9" rx="0.7" ry="0.7" transform="translate(556.5 38.9) rotate(-179.5)" fill="#c57d4f"/><path d="M291.3,171.2h12v-1a8.5,8.5,0,0,0-1.5-4.8l-1.3-1.9a3.9,3.9,0,0,0-3.2-1.7h-1.1a3.9,3.9,0,0,0-3.6,2.5v.2a19.6,19.6,0,0,0-1.2,6.7Z" fill="#693e4b"/><path d="M259.3,171.2h21.6v-8.1h0a3.4,3.4,0,0,1-4.1,1.1l-3.9-1.7-11.1,4.3a3.9,3.9,0,0,0-2.5,3.6Z" fill="#693e4b"/><polygon points="318.2 143.6 299.1 143.6 294.4 142.3 289.8 143.6 291.1 111.2 316.2 111.2 318.2 143.6" fill="#34a6a2"/><polygon points="318.2 143.6 299.1 143.6 297.7 111.2 316.2 111.2 318.2 143.6" fill="#52cdca"/><path d="M311.8,115.4a.7.7,0,0,1-.6-.4l-4.6-9.8a.7.7,0,1,1,1.2-.6l4.6,9.8a.7.7,0,0,1-.3.9Z" fill="#693e4b"/><path d="M303.6,115.6a.7.7,0,0,1-.6-.5l-2.7-11.7a4.6,4.6,0,0,1-.1-2.5.7.7,0,1,1,1.3.4,3.5,3.5,0,0,0,.1,1.7l2.7,11.7a.7.7,0,0,1-.5.8Z" fill="#693e4b"/><path d="M202,21.5h-.3a9.8,9.8,0,0,0-5.9-1.1.6.6,0,1,1-.1-1.3,11.1,11.1,0,0,1,6.6,1.3.6.6,0,0,1-.3,1.2Z" fill="#8d5254"/><path d="M209,21.5a.6.6,0,0,1-.3-1.2,11.2,11.2,0,0,1,6.6-1.3.6.6,0,0,1,.6.7.6.6,0,0,1-.7.6,9.8,9.8,0,0,0-5.9,1.1Z" fill="#8d5254"/><polygon points="189.1 37.2 219.4 42 218.8 30.3 218.4 14.6 192.2 11 189.4 22.6 189.1 37.2" fill="#934d2f"/><path d="M214.6,107.3l3.2.4a2.6,2.6,0,0,0,2.8-2l.2-1.1a9.2,9.2,0,0,0-.6-5.6V60.7h-7.6Z" fill="#ffce9b"/><path d="M193.5,93.4h0a53.4,53.4,0,0,1,6-18.6l.6-1-.2-5.3-6.1-9.7-.7,4.2L187,61.9l.4-8.1a9.3,9.3,0,0,1,7.2-8.5l6.7-1.6,6.9.2,7.5,3.1a4.7,4.7,0,0,1,2.9,4.2v1.7l1.4,4.3a4.5,4.5,0,0,1-.4,3.8l-3.3,5.4.6,13.1.2,13.9Z" fill="#ffce9b"/><path d="M193.4,94.1h24.5l-.2-14.6-.6-12.9,3.2-5.2a5.2,5.2,0,0,0,.5-4.4l-1.4-4.2V51.2a5.4,5.4,0,0,0-3.4-4.8l-7.6-3.1-7.1-.2-6.8,1.6a10,10,0,0,0-7.7,9.2l-.5,8.7,7.4,1.3.5-2.8,2.4,3.6a17.5,17.5,0,0,1,2.9,9.2h0l-.2.3a49,49,0,0,0-5.8,20.1Z" fill="#c26177"/><path d="M201.2,45.1c4.2,4.2,7.2,6,7.6,2.5V38.1h-7.6Z" fill="#ffce9b"/><path d="M208.8,44.4v-7h-7.6v5A10.5,10.5,0,0,0,208.8,44.4Z" fill="#e1ac81"/><ellipse cx="217.7" cy="26" rx="4.3" ry="2.9" transform="translate(154.1 235.9) rotate(-80)" fill="#ffce9b"/><ellipse cx="193.6" cy="26" rx="2.9" ry="4.3" transform="translate(-1.6 34.2) rotate(-10)" fill="#ffce9b"/><path d="M193.6,12.1h24.2a0,0,0,0,1,0,0V27.7a12.1,12.1,0,0,1-12.1,12.1h0a12.1,12.1,0,0,1-12.1-12.1V12.1a0,0,0,0,1,0,0Z" fill="#ffce9b"/><polygon points="191.5 160.7 196.9 160.7 204.9 105 206.4 104.7 203.1 160.7 208.7 160.7 217.3 105.5 217.9 94.1 193.4 94.1 193.6 125.4 191.9 135.8 191.5 160.7" fill="#693e4b"/><path d="M188.3,107.3h3.3l.3-3a5.1,5.1,0,0,0-1.6-4.2l-.8-.7,3.4-35.8-6.1-.9-.7,17.7-.9,23.8A3,3,0,0,0,188.3,107.3Z" fill="#ffce9b"/><polygon points="191.5 165.1 196.7 165.1 196.9 160.7 191.5 160.7 191.5 165.1" fill="#ffce9b"/><polygon points="203.3 165.1 204.2 170.9 212.7 166.9 210 163.4 208.7 160.7 203.3 160.7 203.3 165.1" fill="#ffce9b"/><ellipse cx="199" cy="25" rx="1.6" ry="2.3" fill="#8d5254"/><ellipse cx="211.9" cy="25" rx="1.6" ry="2.3" fill="#8d5254"/><path d="M192.3,43.1l1.6-12.7,2.7-17.4,7.8,3,12.7,4,.6,6.3.8-1.3.8-3.3.2-.4a15.3,15.3,0,0,0-.4-14h0a9.7,9.7,0,0,0-8.1-5L205.6,2a12,12,0,0,0-10.4,5.2h0a5.1,5.1,0,0,0-4.7,3.2h0a56.7,56.7,0,0,0-4.2,23.1h0a9.5,9.5,0,0,0,3,6.6Z" fill="#c57d4f"/><path d="M198.2,171.9H187.5v-.2a7,7,0,0,1,1.2-3.9l1.8-2.6a3.3,3.3,0,0,1,2.8-1.5h.8a3.3,3.3,0,0,1,3.2,2.5l.7,2.8a5.1,5.1,0,0,1,.2,1.3Z" fill="#c26177"/><path d="M221.6,171.9H203.3v-6.8l.9.5a5,5,0,0,0,4.2.1l3-1.3,8.7,4.5a2.8,2.8,0,0,1,1.5,2.5Z" fill="#c26177"/><path d="M187.8,169.7a7,7,0,0,0-.3,2v.2h10.7v-1.5a5.1,5.1,0,0,0,0-.6Z" fill="#e0e0e2"/><path d="M203.3,169.7v2.1h18.3v-.4a2.8,2.8,0,0,0-.6-1.7Z" fill="#e0e0e2"/><path d="M214.9,20.8a3.1,3.1,0,0,0-1.9-1.8,3,3,0,0,0-2.8.8c-.5.6.4,1.6.9.9a2.3,2.3,0,0,1,1.8-.6c.6.1,1.1.7,1.6,1S215,21,214.9,20.8Z" fill="#c57d4f"/><path d="M196.1,20.8a3.1,3.1,0,0,1,1.9-1.8,3,3,0,0,1,2.8.8c.5.6-.4,1.6-.9.9a2.3,2.3,0,0,0-1.8-.6c-.6.1-1.1.7-1.6,1S196,21,196.1,20.8Z" fill="#c57d4f"/><path d="M209.5,31.8a5.3,5.3,0,0,1-2.6,1.4,4.1,4.1,0,0,1-1.8-.1c-.4-.1-.6-.2-1-.1a.2.2,0,0,0-.1.2c.3.9,2,.9,2.8.8a4.2,4.2,0,0,0,3.1-1.9A.3.3,0,0,0,209.5,31.8Z" fill="#c57d4f"/><rect x="193.3" y="104.9" width="4.1" height="10.49" fill="#693e4b"/><polygon points="174.1 121.8 180.5 118.8 178.4 104.7 165.7 110.6 174.1 121.8" fill="#c9e875"/><circle cx="176.1" cy="101.9" r="4" transform="translate(-26.5 83.7) rotate(-24.9)" fill="#8cc266"/><circle cx="172.3" cy="106.8" r="4" transform="translate(-29 82.6) rotate(-24.9)" fill="#8cc266"/><circle cx="178.4" cy="107.5" r="4" transform="translate(-28.7 85.3) rotate(-24.9)" fill="#8cc266"/><circle cx="167.9" cy="110.8" r="4" transform="translate(-31.1 81.1) rotate(-24.9)" fill="#8cc266"/><circle cx="171.2" cy="101.5" r="2.3" transform="translate(-26.9 81.7) rotate(-24.9)" fill="#8cc266"/><circle cx="180.4" cy="104.3" r="2.3" transform="translate(-27.2 85.8) rotate(-24.9)" fill="#8cc266"/><circle cx="163.9" cy="114.5" r="2.3" transform="translate(-33 79.8) rotate(-24.9)" fill="#8cc266"/><circle cx="180.4" cy="114.1" r="5.4" fill="#bd454a"/><circle cx="188.6" cy="113.1" r="5.4" fill="#e3454a"/><path d="M196.1,103.6h-4.2v2h5.7v-.7A1.3,1.3,0,0,0,196.1,103.6Z" fill="#693e4b"/><path d="M185.3,103.6H175.1a1.3,1.3,0,0,0-1.3,1.3v.7h11.8A3.6,3.6,0,0,1,185.3,103.6Z" fill="#693e4b"/><path d="M192.7,133.4h0a5.6,5.6,0,0,0,6.7-4.3l4.8-22.3a5.6,5.6,0,0,0-4.3-6.7h0a5.6,5.6,0,0,0-6.7,4.3l-4.8,22.3A5.6,5.6,0,0,0,192.7,133.4Z" fill="#e7935b"/><ellipse cx="198.3" cy="107.2" rx="4.2" ry="1.3" transform="translate(-5.9 11.7) rotate(-3.3)" fill="#cc634c"/><ellipse cx="197.2" cy="112.1" rx="4.2" ry="1.3" transform="translate(-6.2 11.7) rotate(-3.3)" fill="#cc634c"/><ellipse cx="196.2" cy="117.1" rx="4.2" ry="1.3" transform="translate(-6.5 11.6) rotate(-3.3)" fill="#cc634c"/><ellipse cx="195.1" cy="122" rx="4.2" ry="1.3" transform="matrix(1, -0.06, 0.06, 1, -6.78, 11.57)" fill="#cc634c"/><ellipse cx="194" cy="126.9" rx="4.2" ry="1.3" transform="matrix(1, -0.06, 0.06, 1, -7.07, 11.52)" fill="#cc634c"/><polygon points="169.9 139.8 202.6 139.8 204.6 120.1 167.9 120.1 169.9 139.8" fill="#ea5a36"/><polygon points="183.7 139.8 202.6 139.8 204.6 120.1 183.7 120.1 183.7 139.8" fill="#fc8145"/><rect x="166.5" y="115.4" width="39.4" height="4.75" fill="#ffb159"/><rect x="166.5" y="115.4" width="15.3" height="4.75" fill="#fc8145"/><rect x="173.8" y="104.9" width="4.1" height="10.49" fill="#693e4b"/><path d="M245.7,74h.3a8,8,0,0,1,4.8-.9.5.5,0,1,0,.1-1,9.1,9.1,0,0,0-5.4,1,.5.5,0,0,0,.3,1Z" fill="#8d5254"/><path d="M240,74a.5.5,0,0,0,.3-1,9.1,9.1,0,0,0-5.4-1,.5.5,0,0,0-.5.6.5.5,0,0,0,.6.5,8,8,0,0,1,4.8.9Z" fill="#8d5254"/><polygon points="253.6 161.8 245 161.8 241.8 136.6 240.8 134.9 241 161.8 233.3 161.8 231.1 133.1 231.1 121.7 251.9 121.7 252.3 142.7 252.8 150 253.6 161.8" fill="#7e3340"/><path d="M251.9,128.3H231.1l-.5-22.7-2.8-.3V103a12.3,12.3,0,0,1,8.5-11.2l3-1h7.4a13,13,0,0,1,10.7,5.6l.6.9-4.6,4.6-1.7,1.6Z" fill="#fc8145"/><path d="M247,92.1c-4.2,3-7.2,4.3-7.6,1.8V87.2H247Z" fill="#ffce9b"/><path d="M239.4,91.6V88.1H247v2.1A13.9,13.9,0,0,1,239.4,91.6Z" fill="#e1ac81"/><ellipse cx="232.2" cy="78.3" rx="2.4" ry="3.5" transform="translate(-10.1 41.7) rotate(-10)" fill="#ffce9b"/><ellipse cx="253.2" cy="78.3" rx="3.5" ry="2.4" transform="translate(131.9 314) rotate(-80)" fill="#ffce9b"/><path d="M240.5,66.3h4.4a7.7,7.7,0,0,1,7.7,7.7V88.9a0,0,0,0,1,0,0H232.9a0,0,0,0,1,0,0V74a7.7,7.7,0,0,1,7.7-7.7Z" transform="translate(485.4 155.3) rotate(180)" fill="#ffce9b"/><polygon points="252.6 164.9 247.1 164.9 247 161.8 252.6 161.8 252.6 164.9" fill="#ffce9b"/><path d="M239.5,164.9l-.6,4.1-6.1-2.8.7-1a5.6,5.6,0,0,0,1.2-3.4h4.8Z" fill="#ffce9b"/><ellipse cx="248.1" cy="78.2" rx="1.3" ry="1.9" fill="#8d5254"/><ellipse cx="237.6" cy="78.2" rx="1.3" ry="1.9" fill="#8d5254"/><path d="M252.6,78.6V75.7a9.3,9.3,0,0,0-2.7-6.5l-1-1h0a13.1,13.1,0,0,1-6.5,2.8l-9.6,1.3v7.3h-.1a20.9,20.9,0,0,1-3.9-7.5h0a5.3,5.3,0,0,1,2.8-6.2h0l1-2.2a11.7,11.7,0,0,1,12-6.7l2,.2a11.8,11.8,0,0,1,9.8,8.1h0a9,9,0,0,1,.1,5.1l-.5,2a14.1,14.1,0,0,1-3.6,6.3Z" fill="#c57d4f"/><rect x="246.1" y="72.2" width="4.7" height="1.55" rx="0.6" ry="0.6" transform="translate(496.9 146) rotate(180)" fill="#c57d4f"/><rect x="234.7" y="72.2" width="4.9" height="1.55" rx="0.6" ry="0.6" transform="translate(473.7 148) rotate(-179.5)" fill="#c57d4f"/><path d="M245.6,172.7h9.9v-2.1a7.9,7.9,0,0,0-1.4-4.5l-.4-.6a3.4,3.4,0,0,0-2.8-1.5h-1.4a3.4,3.4,0,0,0-3.2,2.2l-.3.7a7.9,7.9,0,0,0-.5,2.7Z" fill="#ea5a36"/><path d="M227.4,172.7h12.1v-7.8l-4-.3a5.5,5.5,0,0,0-3.2.7l-3,1.8a3.7,3.7,0,0,0-1.8,3.2Z" fill="#ea5a36"/><path d="M221.1,102.1h33.9a0,0,0,0,1,0,0v15A4.9,4.9,0,0,1,250,122H226a4.9,4.9,0,0,1-4.9-4.9v-15a0,0,0,0,1,0,0Z" transform="translate(20 -35.1) rotate(8.8)" fill="#693e4b"/><path d="M221.4,115.3l31.1,4.8a2.8,2.8,0,0,0,3.2-2.3l.4-2.4a3.2,3.2,0,0,0-1.8-3.3l-2.1-1h0a8.6,8.6,0,0,0-5.7-3.6l-5.7-.9a13.7,13.7,0,0,0-7.2.8l-2.6,1-7.2-.3a4.7,4.7,0,0,0-4.8,3.9h0A2.8,2.8,0,0,0,221.4,115.3Z" fill="#34a6a2"/><circle cx="226" cy="113.6" r="3.8" transform="translate(79.2 319.5) rotate(-81.2)" fill="#693e4b"/><circle cx="226" cy="113.6" r="2.2" transform="translate(79.2 319.5) rotate(-81.2)" fill="#34a6a2"/><circle cx="249.8" cy="117.2" r="3.8" transform="translate(95.7 346.1) rotate(-81.2)" fill="#693e4b"/><circle cx="249.8" cy="117.2" r="2.2" transform="translate(95.7 346.1) rotate(-81.2)" fill="#34a6a2"/><path d="M256.3,104.8,254,119.6a4.9,4.9,0,0,1-5.6,4.1L224.6,120a4.9,4.9,0,0,1-4.1-5.6l2.3-14.8-6.7-1-3.9,25,47,7.3,3.9-25Z" fill="#ea5a36"/><path d="M258.6,126.3h-1a1.9,1.9,0,0,1-1.9-1.8v-2a3.7,3.7,0,0,1,1.6-3.3l.8-.5-1.7-12.3-5-2.4c1.2-4.8,3.2-7.6,6.8-6.8l2.9,3.5a10.5,10.5,0,0,1,2.4,7.5L262.2,123A3.6,3.6,0,0,1,258.6,126.3Z" fill="#ffce9b"/><path d="M225.8,127.8l-5-1.3a1.3,1.3,0,0,1-.8-2l.7-1.1a3,3,0,0,1,3-1.4h.8a3.3,3.3,0,0,1,2.7,2.7l.3,1.5A1.3,1.3,0,0,1,225.8,127.8Z" fill="#ffce9b"/><path d="M243.1,81.6h.2a3.2,3.2,0,0,1,3.2,3.2v.1a0,0,0,0,1,0,0h-6.5a0,0,0,0,1,0,0v-.1A3.2,3.2,0,0,1,243.1,81.6Z" transform="translate(486.4 166.5) rotate(180)" fill="#8d5254"/><path d="M245.7,81.6h-5.1l.3.7a1.1,1.1,0,0,0,1,.6h2.5a1.1,1.1,0,0,0,1-.6Z" fill="#fff"/><path d="M257.2,67.7,230,69.5l.2-5.9a11.9,11.9,0,0,1,4.7-9.1l2.8-2.1a4.2,4.2,0,0,1,4.1-.5l7.7,3.3a11.9,11.9,0,0,1,7.1,9.2Z" fill="#7e3340"/><path d="M226.4,72.9a1.6,1.6,0,0,1-.9-2.9c6.9-4.5,15.1-5.4,24.4-2.8a1.6,1.6,0,0,1-.8,3c-8.4-2.3-15.8-1.5-21.9,2.4Z" fill="#52cdca"/><path d="M403.5,94.7l-.5-.2c-2.7-3.4-6.1-7.4-9-10.9l-.8-1a.6.6,0,0,1,1-.8l.8,1c3,3.5,6.3,7.5,9,11a.6.6,0,0,1-.1.9Z" fill="#693e4b"/><path d="M397.9,94.1a.6.6,0,0,1-.6-.4l-5.6-12.4a.6.6,0,1,1,1.1-.5l5.6,12.4a.6.6,0,0,1-.3.8Z" fill="#693e4b"/><path d="M392.1,100.8a.6.6,0,0,1-.6-.5c-1.2-5.8-2.3-11.8-3.3-17.6a.6.6,0,0,1,1.2-.2c1,5.8,2.1,11.7,3.3,17.6a.6.6,0,0,1-.5.7Z" fill="#693e4b"/><polygon points="401.1 114.9 381.4 116.6 378.1 116.1 374.2 117.2 374.7 97.8 398.3 95.7 401.1 114.9" fill="#7e3340"/><polygon points="401.1 114.9 381.4 116.6 379.1 97.4 398.3 95.7 401.1 114.9" fill="#7e3340"/><polygon points="405.1 117.1 390.3 118.7 387.7 117.9 384.8 119.3 383.2 93.9 400.9 92 405.1 117.1" fill="#e39d40"/><polygon points="405.1 117.1 390.3 118.7 386.5 93.5 400.9 92 405.1 117.1" fill="#fec742"/><polygon points="413.5 112.3 398.9 116.2 396.2 116 393.5 117.7 389.2 96.5 406.7 91.8 413.5 112.3" fill="#6b665e"/><polygon points="413.5 112.3 398.9 116.2 392.5 95.6 406.7 91.8 413.5 112.3" fill="#9aa772"/><ellipse cx="370.2" cy="171.8" rx="36" ry="2.9" fill="#83bbca"/><path d="M367.8,30.1h-.3a9.3,9.3,0,0,0-5.6-1.1.6.6,0,1,1-.1-1.2,10.5,10.5,0,0,1,6.3,1.2.6.6,0,0,1-.3,1.1Z" fill="#8d5254"/><path d="M374.4,30.1a.6.6,0,0,1-.3-1.1,10.5,10.5,0,0,1,6.3-1.2.6.6,0,0,1,.6.7.6.6,0,0,1-.7.6,9.3,9.3,0,0,0-5.6,1.1Z" fill="#8d5254"/><polygon points="355.6 44.9 384.2 49.4 383.7 38.4 383.3 23.5 358.6 20.2 356 31.1 355.6 44.9" fill="#51202e"/><path d="M396.7,81l1.6,1.9a5.4,5.4,0,0,0,4.1,1.9h1.7a1.1,1.1,0,0,0,1.1-1.5l-.6-2.1a6,6,0,0,0-3.6-4h0a6.5,6.5,0,0,0-4.3-.1L385,80.8V67.1h-7.2l.9,20.8Z" fill="#ffce9b"/><path d="M359.8,97.9h0a50.4,50.4,0,0,1,5.7-17.5l.5-1-.2-5-5.8-9.2-.6,4-5.8-1,.4-7.6a8.8,8.8,0,0,1,6.8-8.1l6.3-1.5,6.5.2,7.1,2.9a4.5,4.5,0,0,1,2.8,4v1.6l1.3,4a4.3,4.3,0,0,1-.4,3.6l-3.1,5.1.6,12.4.2,13.2Z" fill="#ffce9b"/><path d="M359.7,98.6h23.1l-.2-13.8-.6-12.2,3-4.9a4.9,4.9,0,0,0,.5-4.1l-1.3-3.9V58.1a5.1,5.1,0,0,0-3.2-4.5l-7.2-3-6.7-.2-6.4,1.5a9.4,9.4,0,0,0-7.2,8.6l-.4,8.2,7,1.2.4-2.7,2.2,3.4a16.5,16.5,0,0,1,2.8,8.7h0l-.2.3a46.3,46.3,0,0,0-5.5,18.9Z" fill="#e7935b"/><path d="M367.1,50.4l6.7.2,2.8,1.2,1.7,3.6a3.3,3.3,0,0,1-3.1,4.8h-1.7a8,8,0,0,1-7-4.5l-2.2-4.5Z" fill="#ffce9b"/><path d="M365.4,79.3a16.5,16.5,0,0,0-1.4-6.2h18.1l.5,11.6.2,13.8H359.7a46.3,46.3,0,0,1,5.5-18.9Z" fill="#e7935b"/><path d="M365.2,79.7h0l.2-.3a16.5,16.5,0,0,0-1.4-6.2h18.1l.3,6.5Z" fill="#7e3340"/><path d="M367,52.3c3.9,4,6.8,5.7,7.2,2.3V45.7H367Z" fill="#ffce9b"/><path d="M374.2,51.7V45.1h-7.2v4.7A9.9,9.9,0,0,0,374.2,51.7Z" fill="#e1ac81"/><ellipse cx="382.6" cy="34.3" rx="4.1" ry="2.8" transform="translate(282.1 405.1) rotate(-80)" fill="#ffce9b"/><ellipse cx="359.9" cy="34.3" rx="2.8" ry="4.1" transform="translate(-0.5 63.3) rotate(-10)" fill="#ffce9b"/><path d="M371.2,47.4h0a11.4,11.4,0,0,0,11.4-11.4V21.2H359.8V35.9A11.4,11.4,0,0,0,371.2,47.4Z" fill="#ffce9b"/><polygon points="358.6 159.7 362.4 159.7 370.5 108.9 371.9 108.6 369 161.5 373.3 161.5 382.2 109.4 382.9 98.6 359.7 98.6 359.8 128.2 358.3 138 358.6 159.7" fill="#ffce9b"/><path d="M351.6,119.4h0a.6.6,0,0,1-.6-.7c.2-2.3.4-4.7.8-7a10.3,10.3,0,0,1,1-3.3.6.6,0,1,1,1.1.6,9.3,9.3,0,0,0-.8,2.9c-.4,2.3-.6,4.6-.8,6.9A.6.6,0,0,1,351.6,119.4Z" fill="#693e4b"/><path d="M345.7,121.2h-.3a.6.6,0,0,1-.3-.8l4.3-9.2a11.8,11.8,0,0,1,1.9-3.1,4.4,4.4,0,0,1,3.6-1.5.6.6,0,0,1,.5.7.6.6,0,0,1-.7.5,3.1,3.1,0,0,0-2.6,1.1,10.7,10.7,0,0,0-1.7,2.8l-4.3,9.2A.6.6,0,0,1,345.7,121.2Z" fill="#693e4b"/><path d="M381.8,99.5h-.1a.6.6,0,0,1-.6-.7l1.6-15a7.2,7.2,0,0,1,.6-2.5,2.9,2.9,0,0,1,2.4-1.7.6.6,0,0,1,.6.6.6.6,0,0,1-.6.6,1.7,1.7,0,0,0-1.3,1A6.1,6.1,0,0,0,384,84l-1.6,15A.6.6,0,0,1,381.8,99.5Z" fill="#693e4b"/><polygon points="382.9 125.6 383.4 93.4 382.5 81.1 361.6 88.2 352.2 123.7 382.9 125.6" fill="#e7935b"/><path d="M354.8,111.1H358l.2-2.9a4.8,4.8,0,0,0-1.5-3.9l-.7-.7,3.2-33.8-5.7-.9-.6,16.7-.8,22.5A2.8,2.8,0,0,0,354.8,111.1Z" fill="#ffce9b"/><path d="M358.6,120.8a.6.6,0,0,1-.6-.5c-.6-3.5-1.3-7-2-10.5a.6.6,0,0,1,1.2-.2c.7,3.5,1.4,7,2,10.5a.6.6,0,0,1-.5.7Z" fill="#693e4b"/><path d="M361.2,172h-4.1a1.5,1.5,0,0,1-1.5-1.5v-1.5l3-9.3h3.8l.2,10.3v.6A1.5,1.5,0,0,1,361.2,172Z" fill="#ab3e4b"/><path d="M359.7,168h0a1.7,1.7,0,0,0,1.7-1.5l1-6.8h-3.8l-.6,6.3A1.7,1.7,0,0,0,359.7,168Z" fill="#ffce9b"/><polygon points="369 165.6 371.8 165 375.2 169.5 377.4 167.5 373.4 161.5 369 161.5 369 165.6" fill="#ffce9b"/><ellipse cx="365" cy="33.4" rx="1.5" ry="2.2" fill="#8d5254"/><ellipse cx="377.2" cy="33.4" rx="1.5" ry="2.2" fill="#8d5254"/><path d="M358.6,50.4l1.5-12L362.7,22l7.4,2.8,8.5,2.7a5.7,5.7,0,0,1,3.9,4.8l.2,2.3V46.9l1.6,7.3,2.8-5.8c2.5-5.9,2.7-16.5.9-25.8h0c-2.1-6.4-7.1-9.4-13.8-10.1l-3-.3a10.6,10.6,0,0,0-9.8,4.5h0a4.8,4.8,0,0,0-4.5,3h0a53.5,53.5,0,0,0-4,21.8h0a9,9,0,0,0,2.8,6.3Z" fill="#7e3340"/><path d="M377.6,172h-2.3a3.2,3.2,0,0,1-2.8-1.7l-1.7-3.1-.6,4.8H369l-.5-9.4.5-3.9,2,2.7,2.8,5.1a2.5,2.5,0,0,0,3.6.9h0l3.1.7-.2,1.4A2.8,2.8,0,0,1,377.6,172Z" fill="#ab3e4b"/><polygon points="339.9 148.2 357.9 148.2 362.4 147 366.7 148.2 365.5 117.6 341.7 117.6 339.9 148.2" fill="#34a6a2"/><polygon points="339.9 148.2 357.9 148.2 359.2 117.6 341.7 117.6 339.9 148.2" fill="#52cdca"/><path d="M345.7,121.2h-.3a.6.6,0,0,1-.3-.8l4.3-9.2a.6.6,0,1,1,1.1.5l-4.3,9.2A.6.6,0,0,1,345.7,121.2Z" fill="#693e4b"/><path d="M353.7,121.8h-.1a.6.6,0,0,1-.5-.8l2.6-11a3.3,3.3,0,0,0,.1-1.6.6.6,0,0,1,1.2-.4,4.3,4.3,0,0,1-.1,2.3l-2.6,11A.6.6,0,0,1,353.7,121.8Z" fill="#693e4b"/><path d="M380.6,29.7a3.1,3.1,0,0,0-1.9-1.8,3,3,0,0,0-2.8.8c-.5.6.4,1.6.9.9a2.3,2.3,0,0,1,1.8-.6c.6.1,1.1.7,1.6,1S380.7,29.9,380.6,29.7Z" fill="#8d5254"/><path d="M361.9,29.7a3.1,3.1,0,0,1,1.9-1.8,3,3,0,0,1,2.8.8c.5.6-.4,1.6-.9.9a2.3,2.3,0,0,0-1.8-.6c-.6.1-1.1.7-1.6,1S361.8,29.9,361.9,29.7Z" fill="#8d5254"/><path d="M397.4,96.9a.6.6,0,0,1-.5-.3,108.9,108.9,0,0,1-7-11.3,9.3,9.3,0,0,1-1.3-3.5,3.8,3.8,0,0,1,1.6-3.6.6.6,0,1,1,.6,1.1,2.6,2.6,0,0,0-1,2.4,8.2,8.2,0,0,0,1.1,3,107.3,107.3,0,0,0,6.9,11.2.6.6,0,0,1-.1.9Z" fill="#693e4b"/><path d="M389.2,95.2a.6.6,0,0,1-.6-.5l-.7-2.8c-.7-2.8-1.2-5.1-1.7-8.3a6.7,6.7,0,0,1,0-2.4,2.8,2.8,0,0,1,1.7-2.1.6.6,0,1,1,.4,1.2,1.6,1.6,0,0,0-.9,1.2,5.7,5.7,0,0,0,.1,2c.5,3.1,1,5.4,1.7,8.2l.7,2.8a.6.6,0,0,1-.5.8Z" fill="#693e4b"/><path d="M403.5,94.7l-.5-.2-3.4-4.3L397.9,88a.6.6,0,0,1,1-.8l1.8,2.2,3.4,4.3a.6.6,0,0,1-.1.9Z" fill="#693e4b"/><path d="M397.9,94.1a.6.6,0,0,1-.6-.4l-2.4-5.3a.6.6,0,1,1,1.1-.5l2.4,5.3a.6.6,0,0,1-.3.8Z" fill="#693e4b"/><path d="M367.9,15.7a42.5,42.5,0,0,0-10.8,3.8l-.5-2.1a8.9,8.9,0,0,1,5-10.2,28.6,28.6,0,0,1,10-2.4,8.8,8.8,0,0,1,9,6.9l.6,2.6A42.2,42.2,0,0,0,367.9,15.7Z" fill="#ffce9b"/><path d="M368,13.4c14.5-3.5,27.4-1.4,28.9,4.7.8,3.3-3,7.4-8,10.8-.3-3.2-.5-6.6-2.2-9.2h0c-1.8-3.2-9.3-4.1-17.7-2.1s-13.5,5.7-14.5,9.2h0v.2h0a54.3,54.3,0,0,0-1.5,9.4c-4.7-.9-7.9-2.9-8.6-5.7C342.9,24.6,353.5,16.9,368,13.4Z" fill="#e7935b"/><path d="M365.4,37.7h-1.8a2.4,2.4,0,0,1-2.4-2.2l-.3-3.2a2.1,2.1,0,0,1,2.1-2.3h4.8a2.1,2.1,0,0,1,2,2.6l-.6,2.1A4,4,0,0,1,365.4,37.7Z" fill="#51202e"/><path d="M377.7,37.7h1.8a2.4,2.4,0,0,0,2.4-2.2l.3-3.2a2.1,2.1,0,0,0-2.1-2.3h-4.8a2.1,2.1,0,0,0-2,2.6l.6,2.1A4,4,0,0,0,377.7,37.7Z" fill="#51202e"/><g opacity="0.4"><path d="M369,30.5a27.7,27.7,0,0,0-2,3,28.9,28.9,0,0,0-2.5,4.2h-1l-1-.2a34.2,34.2,0,0,0,2-3.7c.7-1.3,1.2-2.6,1.9-3.9h1.2A2.1,2.1,0,0,1,369,30.5Zm11-.5h-.8a25.7,25.7,0,0,1-2,4.5c-.4.8-.8,1.8-1.2,2.8a4,4,0,0,0,1.6.4h.3a17.8,17.8,0,0,1,1.5-3.4c.7-1.2,1.3-2.5,1.9-3.8A2.1,2.1,0,0,0,380.1,30Z" fill="#68ffff"/></g><path d="M382.3,31.5H360.2a.9.9,0,0,1,0-1.9h22.1a.9.9,0,0,1,0,1.9Z" fill="#578291"/><path d="M373.5,38.9a.7.7,0,0,0-.7.3h-.1a1.6,1.6,0,0,0-.9-.3.6.6,0,0,0-.6.3,2.9,2.9,0,0,0-.3,1.7,3,3,0,0,0,.2.7,1.5,1.5,0,0,0,1.5,1.4c1.1,0,1.6-1,1.7-2A1.4,1.4,0,0,0,373.5,38.9Z" fill="#e7935b"/><path d="M374.4,40.4l-.5.2-.9.2h-1.4c-.2,0-.2.2-.1.3s1.2.5,1.7.4,1.4-.2,1.6-.8A.2.2,0,0,0,374.4,40.4Z" fill="#7e3340"/><ellipse cx="119.5" cy="171.8" rx="36" ry="2.9" fill="#83bbca"/><path d="M149.9,105.7q-12.6-4.5-23.2,0c-1.4,16-2.7,31.8,0,36h23.2C152.4,135.9,152.6,124.5,149.9,105.7Zm-7.8,3.3a1.6,1.6,0,0,1-.9,1h0l-1,.3h-.3l-1.1.2h-1.1l-1.3.3a2.9,2.9,0,0,1-3.5-2,2.8,2.8,0,0,1,1.3-3.2,7.8,7.8,0,0,1,5-.3C140.7,105.8,142.7,107.4,142.1,109.1Z" fill="#e3454a"/><path d="M149.9,105.7q-12.6-4.5-23.2,0c-1.4,16-2.7,31.8,0,36h19.7C142.7,134.8,143.4,118.4,149.9,105.7Zm-7.8,3.3a1.6,1.6,0,0,1-.9,1h0l-1,.3h-.3l-1.1.2h-1.1l-1.3.3a2.9,2.9,0,0,1-3.5-2,2.8,2.8,0,0,1,1.3-3.2,7.8,7.8,0,0,1,5-.3C140.7,105.8,142.7,107.4,142.1,109.1Z" fill="#bc3340"/><path d="M116.7,20.1h-.3a9.8,9.8,0,0,0-5.9-1.1.6.6,0,0,1-.1-1.3,11.1,11.1,0,0,1,6.6,1.3.6.6,0,0,1-.3,1.2Z" fill="#8d5254"/><path d="M123.6,20.1a.6.6,0,0,1-.3-1.2,11.2,11.2,0,0,1,6.6-1.3.6.6,0,0,1,.6.7.6.6,0,0,1-.7.6,9.8,9.8,0,0,0-5.9,1.1Z" fill="#8d5254"/><path d="M136.1,108.1l2.4.3a1.8,1.8,0,0,0,2-1.4l.4-2.1a8.3,8.3,0,0,0-.5-5.1l-.2-.5v-38h-7.6l2,45.1A1.8,1.8,0,0,0,136.1,108.1Z" fill="#ffce9b"/><path d="M107.4,100.4h29.1l.7-37.8,4-.4-.5-10.3a7.2,7.2,0,0,0-4.8-6.5h0A51.9,51.9,0,0,0,123,42.7l-3.2-.3a42.3,42.3,0,0,0-15.4,1.4h0a6.8,6.8,0,0,0-5,5.6L97.8,61.1l9.8,1.3-.2-2.8Z" fill="#693e4b"/><path d="M114.3,42l4.6,3.8a3.7,3.7,0,0,0,6.1-2.9V36.6H114.3Z" fill="#ffce9b"/><path d="M125,41.6v-5H114.3v3A19.5,19.5,0,0,0,125,41.6Z" fill="#e1ac81"/><path d="M108.2,10.6h24.2a0,0,0,0,1,0,0V28.9a9.4,9.4,0,0,1-9.4,9.4h-5.4a9.4,9.4,0,0,1-9.4-9.4V10.6A0,0,0,0,1,108.2,10.6Z" fill="#ffce9b"/><polygon points="104.1 160.9 112.2 160.9 121.5 108.9 123 106.6 123.7 160.9 131.9 160.9 136.6 108.8 136.6 96.6 107.4 96.6 106.9 124 105.2 134.4 104.1 160.9" fill="#e3454a"/><circle cx="93.3" cy="108.8" r="9.7" transform="translate(-46.5 140.3) rotate(-62.1)" fill="#c9e875"/><path d="M96.7,105.1a3.1,3.1,0,0,0-3.4.7c-.1.1.1.4.2.3a3.3,3.3,0,0,1,2.9-.2c1,.4,1,1.4,1.8,1.9a.3.3,0,0,0,.4-.1C99.1,106.7,97.6,105.4,96.7,105.1Z" fill="#8cc266"/><path d="M103.5,109.1a3.3,3.3,0,0,0-2.5-3.7,2.5,2.5,0,0,0-3,2,.3.3,0,0,0,.4.2l.5-.4q4.3-.9,3.3,2.5a11,11,0,0,1-2.2,4.1c-1.3,1.8-3.3,2.8-5.1,4.2-.1.1,0,.2.1.2C98.9,117.7,103.4,113.1,103.5,109.1Z" fill="#8cc266"/><path d="M95.4,110.4c0-1.7-2.4-3.4-3.8-2.1s0,.4.2.5h1.3a1.9,1.9,0,0,1,1.4,1.1,1.7,1.7,0,0,1-.2,1.7c-.3.3-1,.8-1.5.5a.2.2,0,0,0-.3.2c.2.9,1.1.6,1.7.3A2.4,2.4,0,0,0,95.4,110.4Z" fill="#8cc266"/><path d="M92.3,104.7c-1-.3-3.6.1-3.4,1.5a.3.3,0,0,0,.3.3,1.1,1.1,0,0,0,.7-.4,2.5,2.5,0,0,1,1.6-.6,1.4,1.4,0,0,1,1.6,1,9.6,9.6,0,0,1,.1,1.8.2.2,0,0,0,.3.1C94,107.2,93.7,105.2,92.3,104.7Z" fill="#8cc266"/><path d="M85.6,114.2c-1-2.2-1.8-3.8-1.5-6.3a11.1,11.1,0,0,1,.8-2.9c1.1-2.8,3.8-2.7,4.9-.1.1.3.7.3.6-.1-.3-2.8-4.1-4.2-5.7-1.5s-3.2,8.8.5,11.2C85.5,114.6,85.7,114.4,85.6,114.2Z" fill="#8cc266"/><path d="M95.4,99.4c-2.8-.6-6.1,2.3-6.1,5,0,.3.5.5.7.2,1.1-2.6,2.8-4.7,5.9-4.1a7.5,7.5,0,0,1,5.9,5.7.2.2,0,0,0,.4,0C102.9,102.3,98.5,100,95.4,99.4Z" fill="#8cc266"/><path d="M97.3,109.4a.2.2,0,0,0-.3.2c.7,2.2-.5,3.7-2.3,4.9s-4.1.8-6,.5-1.7,1.8-.5,2a9.4,9.4,0,0,0,7.4-2.2C97,113.6,99,111,97.3,109.4Z" fill="#8cc266"/><path d="M87.6,113.9c-.7-1.4-.8-4.5,1.1-5.2.3-.1.2-.6-.1-.5-4.1.6-4.2,6.2-1.4,8.5a1.1,1.1,0,0,0,1.5-.1C89.5,115.6,88,114.6,87.6,113.9Z" fill="#8cc266"/><path d="M97,116.6a9.9,9.9,0,0,1-8.2-1c-1-.6-2,.8-1.2,1.6s3,1.4,4.6,1.5a7.6,7.6,0,0,0,5-1.7A.3.3,0,0,0,97,116.6Z" fill="#8cc266"/><rect x="109.2" y="103.3" width="4.1" height="10.49" fill="#693e4b"/><path d="M91,102h21a1.3,1.3,0,0,1,1.3,1.3v.7a0,0,0,0,1,0,0H89.7a0,0,0,0,1,0,0v-.7A1.3,1.3,0,0,1,91,102Z" fill="#693e4b"/><circle cx="96.2" cy="115" r="6.3" fill="#e3454a"/><rect x="100.2" y="102.8" width="15.2" height="20.09" transform="translate(24 -18.8) rotate(11.2)" fill="#e39d40"/><rect x="104.8" y="103.3" width="10.6" height="20.09" transform="translate(24.2 -19.3) rotate(11.2)" fill="#fec742"/><polygon points="85.8 138.2 118.5 138.2 120.5 118.5 83.8 118.5 85.8 138.2" fill="#34a6a2"/><path d="M134.1,110.1c-6.2-6.2-19.5-1.7-21.6,6.5-.4,1.4,1.7,2.9,2.7,1.6s3-4.9,5.3-6.9c3.9-3.5,8.8-2.5,13.1-.6C134,110.9,134.5,110.4,134.1,110.1Z" fill="#4a9866"/><path d="M133.3,104c-4.4-3.2-9.7-5.6-13.8-1s-8,10.5-8.3,16.9c-.1,1.8,2.4,1.9,2.9.4,1.3-4,2.2-8,4.1-11.8s3.6-6.8,7.3-6.1a29.8,29.8,0,0,1,7.2,2.7A.6.6,0,0,0,133.3,104Z" fill="#4a9866"/><path d="M132.9,97.9a90.7,90.7,0,0,0-12.4,8.5c-3.3,2.8-7.4,6.8-8.4,11.2-.3,1.2,1.3,2.3,2.2,1.3,2.8-3.5,4.8-7.4,8-10.6a110.1,110.1,0,0,1,11.2-9.6C133.9,98.4,133.4,97.7,132.9,97.9Z" fill="#4a9866"/><path d="M118.2,98.7c-5.4,5.5-8.6,15.1-7.3,22.7.3,1.7,3,1.7,3.3,0,.6-3.6.3-7.4.9-11a31.3,31.3,0,0,1,4.1-11A.6.6,0,0,0,118.2,98.7Z" fill="#4a9866"/><path d="M115,99.5a.6.6,0,0,0-1-.5c-4.4,6.5-7.2,16-5.4,23.9a1.4,1.4,0,0,0,2.8-.4c-.1-4-.6-7.7,0-11.7A43,43,0,0,1,115,99.5Z" fill="#4a9866"/><path d="M124.3,111c-3-.1-6.5,1.6-9.4,2.4s-3.3,1.2-3.6,3.1a1.3,1.3,0,0,0,1.8,1.4,51.8,51.8,0,0,1,9.3-4c2.2-.8,3.7-.9,5.2,1.2a30.6,30.6,0,0,1,3.2,6.2.3.3,0,0,0,.5-.1C130.8,117.4,128.6,111.1,124.3,111Z" fill="#4a9866"/><polygon points="99.6 138.2 118.5 138.2 120.5 118.5 99.6 118.5 99.6 138.2" fill="#52cdca"/><rect x="82.4" y="113.8" width="39.4" height="4.75" fill="#68eae5"/><rect x="82.4" y="113.8" width="15.3" height="4.75" fill="#52cdca"/><rect x="89.7" y="103.3" width="4.1" height="10.49" fill="#693e4b"/><path d="M99,105.9h6a1.6,1.6,0,0,0,1.6-1.5l.2-2.5a3.3,3.3,0,0,0-1-2.7L104.4,98l3.4-35.8-8.7-.9L98.4,79l-.9,25.3A1.6,1.6,0,0,0,99,105.9Z" fill="#ffce9b"/><polygon points="105.5 163.7 111.3 163.7 111.4 160.9 105.5 160.9 105.5 163.7" fill="#ffce9b"/><polygon points="123.9 163.7 130.6 168.5 133.3 165.5 130.6 162.1 130.6 160.9 123.9 160.9 123.9 163.7" fill="#ffce9b"/><ellipse cx="133" cy="24.6" rx="4.3" ry="2.9" transform="translate(85.7 151.3) rotate(-80)" fill="#ffce9b"/><ellipse cx="107.6" cy="24.6" rx="2.9" ry="4.3" transform="translate(-2.6 19.1) rotate(-10)" fill="#ffce9b"/><ellipse cx="113.7" cy="23.6" rx="1.6" ry="2.3" fill="#8d5254"/><ellipse cx="126.6" cy="23.6" rx="1.6" ry="2.3" fill="#8d5254"/><path d="M120.1,32.3a9.2,9.2,0,0,1-4.5-1.3.6.6,0,0,1,.6-1.1,7.5,7.5,0,0,0,7.8,0,.6.6,0,1,1,.6,1.1A9.3,9.3,0,0,1,120.1,32.3Z" fill="#e1ac81"/><path d="M108.2,11v18a9.4,9.4,0,0,0,9.4,9.4h5.4a9.4,9.4,0,0,0,9.4-9.4V11h-1.6V25.4a12.8,12.8,0,0,1-1.1,5.2l-1,2.1-1.6-2.6a4.5,4.5,0,0,0-3.8-2.1h-5.8a4.5,4.5,0,0,0-3.9,2.3l-1.3,2.4-1-1.8a12.8,12.8,0,0,1-1.5-6.1V11ZM115,31.1h0a1.7,1.7,0,0,1,1.7-1.7h7.3a1.7,1.7,0,0,1,1.7,1.7h0a4.3,4.3,0,0,1-4.3,4.3h-2A4.3,4.3,0,0,1,115,31.1Z" fill="#c1bc9d"/><path d="M132.4,28.1h0l-2.1-14.7-4,1.2a22.1,22.1,0,0,1-6.5.9h0a4.9,4.9,0,0,1-4.2-2.4h0l-1.2.8a9.9,9.9,0,0,1-4.4,1.6h0l-1.8,12.7-.3-.3a3.4,3.4,0,0,1-1.1-2.5V19.7l-.9-2.2a10.8,10.8,0,0,1-.8-4.5h0a9,9,0,0,1,6.3-8.1h0a3.5,3.5,0,0,1,3.5-4h5.5a8.9,8.9,0,0,1,10.5,2.7h.1a13.4,13.4,0,0,1,2.7,10.1h0l.2,11.6A3.4,3.4,0,0,1,132.4,28.1Z" fill="#c57d4f"/><rect x="110.8" y="18" width="5.3" height="1.9" rx="0.8" ry="0.8" fill="#c57d4f"/><rect x="124.1" y="18" width="6" height="1.9" rx="0.8" ry="0.8" fill="#c57d4f"/><path d="M112.3,171.8h-9.7a1.2,1.2,0,0,1-1.2-1.2v-.5a5.2,5.2,0,0,1,1.3-3.4l2.7-3h5.9l1.7,3.6a5.2,5.2,0,0,1,.5,2.2v1.2A1.2,1.2,0,0,1,112.3,171.8Z" fill="#693e4b"/><path d="M144.2,171.8H125.7a1.8,1.8,0,0,1-1.8-1.8v-6.3l6.3,4.1,1.7-4.1,12.8,5.6a1.3,1.3,0,0,1,.8,1.2h0A1.3,1.3,0,0,1,144.2,171.8Z" fill="#693e4b"/><ellipse cx="36" cy="171.8" rx="36" ry="2.9" fill="#83bbca"/><path d="M33.6,30.1h-.3a9.3,9.3,0,0,0-5.6-1.1.6.6,0,1,1-.1-1.2A10.5,10.5,0,0,1,33.9,29a.6.6,0,0,1-.3,1.1Z" fill="#8d5254"/><path d="M40.2,30.1a.6.6,0,0,1-.3-1.1,10.5,10.5,0,0,1,6.3-1.2.6.6,0,0,1,.6.7.6.6,0,0,1-.7.6A9.3,9.3,0,0,0,40.5,30Z" fill="#8d5254"/><path d="M59.4,81,63.6,79a3.2,3.2,0,0,0,1.8-2.6l.6-6.6-4.9,1.7-1.7,5.6-8.7,3.7V67.1H43.6l.9,20.8Z" fill="#ffce9b"/><path d="M25.6,97.9h0a50.4,50.4,0,0,1,5.7-17.5l.5-1-.2-5-5.8-9.2-.6,4-5.8-1,.4-7.6a8.8,8.8,0,0,1,6.8-8.1l6.3-1.5,6.5.2,7.1,2.9a4.5,4.5,0,0,1,2.8,4v1.6l1.3,4a4.3,4.3,0,0,1-.4,3.6l-3.1,5.1.6,12.4L48,97.9Z" fill="#ffce9b"/><path d="M25.5,98.6H48.7l-.2-13.8-.6-12.2,3-4.9a4.9,4.9,0,0,0,.5-4.1L50,59.6V58.1a5.1,5.1,0,0,0-3.2-4.5l-7.2-3-6.7-.2-6.4,1.5a9.4,9.4,0,0,0-7.2,8.6l-.4,8.2,7,1.2.4-2.7,2.2,3.4a16.5,16.5,0,0,1,2.8,8.7h0l-.2.3a46.3,46.3,0,0,0-5.5,18.9Z" fill="#52cdca"/><path d="M32.9,50.4l6.7.2,2.8,1.2,1.7,3.6a3.3,3.3,0,0,1-3.1,4.8H39.4a8,8,0,0,1-7-4.5l-2.2-4.5Z" fill="#ffce9b"/><path d="M31.2,79.3a16.5,16.5,0,0,0-1.4-6.2H47.9l.5,11.6.2,13.8H25.5A46.3,46.3,0,0,1,31,79.6Z" fill="#52cdca"/><path d="M31,79.7h0l.2-.3a16.5,16.5,0,0,0-1.4-6.2H47.9l.3,6.5Z" fill="#7e3340"/><path d="M32.8,52.3c3.9,4,6.8,5.7,7.2,2.3V45.7H32.8Z" fill="#ffce9b"/><path d="M40,51.7V45.1H32.9v4.7A9.9,9.9,0,0,0,40,51.7Z" fill="#e1ac81"/><ellipse cx="48.4" cy="34.3" rx="4.1" ry="2.8" transform="translate(6.2 76) rotate(-80)" fill="#ffce9b"/><ellipse cx="25.7" cy="34.3" rx="2.8" ry="4.1" transform="translate(-5.6 5) rotate(-10)" fill="#ffce9b"/><path d="M37,47.4h0A11.4,11.4,0,0,0,48.5,35.9V21.2H25.6V35.9A11.4,11.4,0,0,0,37,47.4Z" fill="#ffce9b"/><polygon points="24.4 159.7 28.2 159.7 36.3 108.9 37.7 108.6 34.8 161.5 39.1 161.5 48 109.4 48.7 98.6 25.5 98.6 25.6 128.2 24.1 138 24.4 159.7" fill="#ffce9b"/><path d="M17.4,119.5h-.1a.8.8,0,0,1-.7-.8c.2-2.3.4-4.7.8-7a10.6,10.6,0,0,1,1-3.4.8.8,0,0,1,1.4.7,9.2,9.2,0,0,0-.8,2.9c-.4,2.3-.6,4.6-.8,6.8A.8.8,0,0,1,17.4,119.5Z" fill="#cb8e68"/><path d="M11.5,121.4h-.3a.8.8,0,0,1-.4-1l4.3-9.2a11.9,11.9,0,0,1,1.9-3.2,4.5,4.5,0,0,1,3.8-1.6.8.8,0,0,1-.2,1.5,3,3,0,0,0-2.4,1.1,10.6,10.6,0,0,0-1.7,2.8l-4.3,9.2A.8.8,0,0,1,11.5,121.4Z" fill="#e1ac81"/><polygon points="48.7 125.6 49.2 93.4 48.3 81.1 27.4 88.2 18 123.7 48.7 125.6" fill="#52cdca"/><path d="M43.7,83.5a3.8,3.8,0,0,0,3.8,3.8l1.2-.2-.5-6V79.8h-.7A3.8,3.8,0,0,0,43.7,83.5Z" fill="#4faaa9"/><path d="M33.1,82.8a3.8,3.8,0,0,0-2-3.3H31a45.9,45.9,0,0,0-3,6.8l1.3.2A3.8,3.8,0,0,0,33.1,82.8Z" fill="#4faaa9"/><circle cx="29.3" cy="58.4" r="3.8" fill="#4faaa9"/><circle cx="33.6" cy="69" r="3.8" fill="#4faaa9"/><path d="M43.8,118.5a3.8,3.8,0,0,0-2.4,6.7l4.4.3a3.8,3.8,0,0,0-2-7Z" fill="#4faaa9"/><circle cx="42.8" cy="63.9" r="3.8" fill="#4faaa9"/><circle cx="39" cy="92.9" r="3.8" fill="#4faaa9"/><path d="M49.2,96.9a3.8,3.8,0,0,0-.1,7.2Z" fill="#4faaa9"/><circle cx="26.6" cy="117.1" r="3.8" fill="#4faaa9"/><circle cx="40" cy="109.7" r="3.8" fill="#4faaa9"/><path d="M26.3,105.5a3.8,3.8,0,1,0-1.5-7.2L23.2,104A3.8,3.8,0,0,0,26.3,105.5Z" fill="#4faaa9"/><path d="M20.6,111.1h3.1l.2-2.9a4.8,4.8,0,0,0-1.5-3.9l-.7-.7L25,69.8,19.3,69l-.6,16.7-.8,22.5A2.8,2.8,0,0,0,20.6,111.1Z" fill="#ffce9b"/><path d="M24.4,121a.8.8,0,0,1-.8-.6c-.6-3.5-1.3-7-2-10.5a.8.8,0,0,1,1.5-.3c.7,3.5,1.4,7,2,10.5a.8.8,0,0,1-.6.9Z" fill="#cb8e68"/><path d="M27,172H22.9a1.5,1.5,0,0,1-1.5-1.5v-1.5l3-9.3h3.8l.2,10.3v.6A1.5,1.5,0,0,1,27,172Z" fill="#ab3e4b"/><path d="M25.5,168h0a1.7,1.7,0,0,0,1.7-1.5l1-6.8H24.4l-.6,6.3A1.7,1.7,0,0,0,25.5,168Z" fill="#ffce9b"/><polygon points="34.8 165.6 37.6 165 41 169.5 43.2 167.5 39.2 161.5 34.8 161.5 34.8 165.6" fill="#ffce9b"/><ellipse cx="30.8" cy="33.4" rx="1.5" ry="2.2" fill="#8d5254"/><ellipse cx="43" cy="33.4" rx="1.5" ry="2.2" fill="#8d5254"/><path d="M43.4,172H41.1a3.2,3.2,0,0,1-2.8-1.7l-1.7-3.1L36,172H34.8l-.5-9.4.5-3.9,2,2.7,2.8,5.1a2.5,2.5,0,0,0,3.6.9h0l3.1.7-.2,1.4A2.8,2.8,0,0,1,43.4,172Z" fill="#ab3e4b"/><polygon points="5.7 148.2 23.7 148.2 28.2 147 32.5 148.2 31.3 117.6 7.5 117.6 5.7 148.2" fill="#cb8e68"/><polygon points="5.7 148.2 23.7 148.2 25 117.6 7.5 117.6 5.7 148.2" fill="#e1ac81"/><path d="M11.5,121.4h-.3a.8.8,0,0,1-.4-1l4.3-9.2a.8.8,0,0,1,1.4.7l-4.3,9.2A.8.8,0,0,1,11.5,121.4Z" fill="#e1ac81"/><path d="M19.5,121.9h-.2a.8.8,0,0,1-.6-.9l2.6-11a3.2,3.2,0,0,0,.1-1.6.8.8,0,0,1,1.5-.5,4.4,4.4,0,0,1-.1,2.4l-2.6,11A.8.8,0,0,1,19.5,121.9Z" fill="#e1ac81"/><path d="M46.4,29.7a3.1,3.1,0,0,0-1.9-1.8,3,3,0,0,0-2.8.8c-.5.6.4,1.6.9.9a2.3,2.3,0,0,1,1.8-.6c.6.1,1.1.7,1.6,1S46.5,29.9,46.4,29.7Z" fill="#8d5254"/><path d="M27.7,29.7a3.1,3.1,0,0,1,1.9-1.8,3,3,0,0,1,2.8.8c.5.6-.4,1.6-.9.9a2.3,2.3,0,0,0-1.8-.6c-.6.1-1.1.7-1.6,1S27.6,29.9,27.7,29.7Z" fill="#8d5254"/><path d="M40.7,38.8a5.3,5.3,0,0,1-2.6,1.4,4.1,4.1,0,0,1-1.8-.1c-.4-.1-.6-.2-1-.1a.2.2,0,0,0-.1.2c.3.9,2,.9,2.8.8a4.2,4.2,0,0,0,3.1-1.9A.3.3,0,0,0,40.7,38.8Z" fill="#dd645e"/><path d="M35.4,14.6l7.6,2,3.2-5.5a4.5,4.5,0,0,0-3.3-6.7h-1a5.1,5.1,0,0,0-5.6,4.3Z" fill="#51202e"/><path d="M25.1,16.7l.2-.3a8.8,8.8,0,0,1,11.3-3.3l.7.3h0a8.8,8.8,0,0,1,11.5,3h0a13.4,13.4,0,0,1,1.7,10.3L49,33.4,39.6,21.2,24.9,33.4l-1.5-6.8A13.4,13.4,0,0,1,25.1,16.7Z" fill="#51202e"/><path d="M48.5,32.9a17.1,17.1,0,0,1-9.1-11.2.7.7,0,0,1,.1-.7.5.5,0,0,1,.7,0,.5.5,0,0,1,.1.6h-.2a16.4,16.4,0,0,0,8.6,10.7Z" fill="#51202e"/><path d="M25.7,33h-.3v-.8a11.4,11.4,0,0,0,8.2-3.7A34.9,34.9,0,0,0,39,20.8l.7.4a35.4,35.4,0,0,1-5.5,7.9A12.4,12.4,0,0,1,25.7,33Z" fill="#51202e"/><path d="M50.5,26c-.3,3.8.2,7.6-.2,11.3S48.3,45,45.1,47a23.5,23.5,0,0,0,2.4-14.6Z" fill="#51202e"/><path d="M23.9,25.9c.3,3.8-.2,7.6.2,11.3s1.9,7.7,5.1,9.7a23.5,23.5,0,0,1-2.4-14.6Z" fill="#51202e"/><path d="M73.7,45c-5.3-3.2-13.5,2.1-13.6,8,0,1,1.6,1.7,2.1.6s1.3-3.8,2.5-5.5,5.5-3.2,8.8-2.6A.3.3,0,0,0,73.7,45Z" fill="#4a9866"/><path d="M72.1,41c-3.5-1.5-7.6-2.2-9.5,1.6s-3.7,8.5-2.9,12.9c.2,1.2,2,.9,2-.2a61.4,61.4,0,0,1,.9-8.7c.5-2.1,1.3-5.2,4-5.4a20.9,20.9,0,0,1,5.3.7A.4.4,0,0,0,72.1,41Z" fill="#4a9866"/><path d="M70.9,36.9a63.6,63.6,0,0,0-7.1,7.9c-1.8,2.5-3.9,5.8-3.9,9,0,.8,1.3,1.4,1.7.5,1.3-2.8,2.1-5.8,3.7-8.6a77.2,77.2,0,0,1,6.1-8.4C71.6,37.1,71.1,36.7,70.9,36.9Z" fill="#4a9866"/><path d="M61,39.9c-2.7,4.7-3.4,11.7-1.2,16.7A1.2,1.2,0,0,0,62,56c-.2-2.6-1-5.1-1.2-7.7a21.9,21.9,0,0,1,1-8.1A.4.4,0,0,0,61,39.9Z" fill="#4a9866"/><path d="M58.9,41a.4.4,0,0,0-.7-.2c-1.9,5.2-2.3,12.1.3,17.2a1,1,0,0,0,1.9-.7c-.7-2.7-1.7-5.1-1.9-8A30.1,30.1,0,0,1,58.9,41Z" fill="#4a9866"/><path d="M67.1,47.3c-2.1.5-4.2,2.2-6,3.2s-2.1,1.3-2,2.7a.9.9,0,0,0,1.5.7,36.3,36.3,0,0,1,5.7-4.3c1.3-.9,2.4-1.2,3.7,0a21.5,21.5,0,0,1,3.2,3.7.2.2,0,0,0,.3-.2C72.6,50.6,70.1,46.6,67.1,47.3Z" fill="#4a9866"/><circle cx="52.4" cy="50.6" r="4.8" transform="translate(-2.5 98.4) rotate(-85.1)" fill="#bd454a"/><circle cx="57.4" cy="49.5" r="4.8" transform="translate(3.1 102.4) rotate(-85.1)" fill="#e3454a"/><polygon points="52.9 82.8 59.4 77.1 71 78.2 66 49.8 48.9 47.6 42.2 50.9 45.3 79.7 52.9 82.8" fill="#e1ac81"/><polygon points="52.9 82.8 48.9 47.6 42.2 50.9 45.3 79.7 52.9 82.8" fill="#cb8e68"/><path d="M59.4,81l4.8-2.3A2.2,2.2,0,0,0,65.4,77l.5-5.2a1.3,1.3,0,0,0-1.7-1.3l-.9.3a4.4,4.4,0,0,0-2.8,2.9l-1,3.4Z" fill="#ffce9b"/></g></g></svg>