<svg xmlns="http://www.w3.org/2000/svg" viewBox="0 0 465 285">
  <title>increase</title>
  <g>
    <rect x="2.4" y="2.4" width="460.2" height="280.22" rx="13.1" ry="13.1" fill="#4d4d4d"/>
    <path d="M450.8,285H14.5A14.4,14.4,0,0,1,.1,270.7V14.3A14.4,14.4,0,0,1,14.5,0H450.8a14.4,14.4,0,0,1,14.3,14.3V270.7A14.4,14.4,0,0,1,450.8,285ZM14.5,4.8a9.6,9.6,0,0,0-9.6,9.6V270.7a9.6,9.6,0,0,0,9.6,9.6H450.8a9.6,9.6,0,0,0,9.6-9.6V14.3a9.6,9.6,0,0,0-9.6-9.6Z" transform="translate(-0.1)" fill="#e6e6e6"/>
  </g>
  <path d="M462.7,51.1V11.7c0-5.1-5.2-9.3-11.5-9.3H14C7.7,2.4,2.5,6.6,2.5,11.7V51.1Z" transform="translate(-0.1)" fill="#e4e4e4"/>
  <circle cx="23.6" cy="27.4" r="8" fill="#f06465"/>
  <circle cx="47.8" cy="27.4" r="8" fill="#f8d33a"/>
  <circle cx="70.9" cy="27.4" r="8" fill="#71c06b"/>
  <path d="M102.1,26.2H95.9l2.4-2.4a1.2,1.2,0,0,0,0-1.6,1.2,1.2,0,0,0-1.6,0l-4.4,4.4h0a1.1,1.1,0,0,0,0,1.5h.1l4.4,4.4a1.2,1.2,0,0,0,1.6,0,1.2,1.2,0,0,0,0-1.7l-2.4-2.4h6.2a.7.7,0,0,0,.7-.7v-.9A.7.7,0,0,0,102.1,26.2Z" transform="translate(-0.1)" fill="#99999a"/>
  <path d="M106.7,28.6h6.2L110.5,31a1.2,1.2,0,0,0,0,1.6,1.2,1.2,0,0,0,1.6,0l4.4-4.4h0a1.1,1.1,0,0,0,0-1.5h-.1l-4.4-4.4a1.2,1.2,0,0,0-1.6,0,1.2,1.2,0,0,0,0,1.7l2.4,2.4h-6.2a.7.7,0,0,0-.7.7v.9A.7.7,0,0,0,106.7,28.6Z" transform="translate(-0.1)" fill="#99999a"/>
  <rect x="133" y="14" width="314.5" height="26.83" rx="2" ry="2" fill="#fff"/>
  <path d="M435.6,110.8H219.9a6,6,0,0,1,0-11.9H435.6a6,6,0,0,1,0,11.9Z" transform="translate(-0.1)" fill="#666"/>
  <path d="M435.3,137.9H219.6a6,6,0,0,1,0-11.9H435.3a6,6,0,0,1,0,11.9Z" transform="translate(-0.1)" fill="#666"/>
  <path d="M304,234.7H213.6c-1.3,0-2.4-2.7-2.4-6s1.1-6,2.4-6H304c1.3,0,2.4,2.7,2.4,6S305.3,234.7,304,234.7Z" transform="translate(-0.1)" fill="#666"/>
  <g>
    <path d="M144.4,31.9a5,5,0,0,0,2.5.8c1.4,0,2-.7,2-1.5s-.5-1.4-1.9-1.9-2.8-1.7-2.8-2.9,1.4-3.1,3.6-3.1a5.2,5.2,0,0,1,2.6.6l-.5,1.4a4,4,0,0,0-2.1-.6c-1.1,0-1.7.6-1.7,1.4s.6,1.2,2,1.8,2.7,1.6,2.7,3.1-1.4,3.1-3.9,3.1a5.9,5.9,0,0,1-2.9-.7Z" transform="translate(-0.1)" fill="#ccc"/>
    <path d="M155.5,20.4v3h2.7v1.4h-2.7v5.6c0,1.3.4,2,1.4,2H158v1.4a4.6,4.6,0,0,1-1.7.3,2.6,2.6,0,0,1-2-.8,3.9,3.9,0,0,1-.7-2.7V24.8H152V23.4h1.6V20.9Z" transform="translate(-0.1)" fill="#ccc"/>
    <path d="M169.6,28.5c0,3.9-2.7,5.5-5.2,5.5s-5-2.1-5-5.4,2.3-5.5,5.2-5.5S169.6,25.3,169.6,28.5Zm-8.3.1c0,2.3,1.3,4,3.2,4s3.2-1.7,3.2-4-.9-4-3.1-4S161.4,26.6,161.4,28.6Z" transform="translate(-0.1)" fill="#ccc"/>
    <path d="M172,26.6c0-1.2,0-2.3-.1-3.2h1.7v2h.1a3.1,3.1,0,0,1,2.9-2.3h.5V25h-.6a2.7,2.7,0,0,0-2.5,2.4,5.3,5.3,0,0,0-.1.9v5.6H172Z" transform="translate(-0.1)" fill="#ccc"/>
    <path d="M179.9,28.9a3.3,3.3,0,0,0,3.6,3.6,6.8,6.8,0,0,0,2.9-.5l.3,1.4a8.4,8.4,0,0,1-3.5.6c-3.2,0-5.1-2.1-5.1-5.2s1.8-5.6,4.9-5.6,4.3,3,4.3,4.9a7.2,7.2,0,0,1-.1.9Zm5.5-1.4c0-1.2-.5-3.1-2.6-3.1s-2.8,1.8-2.9,3.1Z" transform="translate(-0.1)" fill="#ccc"/>
    <path d="M188.9,32.7a1.3,1.3,0,0,1,1.3-1.4,1.4,1.4,0,1,1-1.3,1.4Z" transform="translate(-0.1)" fill="#ccc"/>
    <path d="M201.2,33.4a7,7,0,0,1-3,.6,4.9,4.9,0,0,1-5.2-5.3,5.3,5.3,0,0,1,5.6-5.5,6.3,6.3,0,0,1,2.6.5l-.4,1.5a4.4,4.4,0,0,0-2.2-.5c-2.4,0-3.7,1.8-3.7,3.9a3.6,3.6,0,0,0,3.6,3.9,5.4,5.4,0,0,0,2.3-.5Z" transform="translate(-0.1)" fill="#ccc"/>
    <path d="M212.7,28.5c0,3.9-2.7,5.5-5.2,5.5s-5-2.1-5-5.4,2.3-5.5,5.2-5.5S212.7,25.3,212.7,28.5Zm-8.3.1c0,2.3,1.3,4,3.2,4s3.2-1.7,3.2-4-.9-4-3.1-4S204.4,26.6,204.4,28.6Z" transform="translate(-0.1)" fill="#ccc"/>
    <path d="M215.1,26.2c0-1.1,0-2-.1-2.8h1.7v1.7h.1a3.6,3.6,0,0,1,3.3-1.9,3.1,3.1,0,0,1,2.9,2.1h0a4.3,4.3,0,0,1,1.2-1.4,3.6,3.6,0,0,1,2.3-.7c1.4,0,3.4.9,3.4,4.5v6.1h-1.8V27.9c0-2-.7-3.2-2.3-3.2a2.4,2.4,0,0,0-2.2,1.7,3.1,3.1,0,0,0-.2.9v6.4h-1.8V27.5c0-1.7-.7-2.9-2.2-2.9a2.8,2.8,0,0,0-2.5,2.8v6.3h-1.8Z" transform="translate(-0.1)" fill="#ccc"/>
  </g>
  <path d="M449,51.1a24.3,24.3,0,1,1-48.7,0Z" transform="translate(-0.1)" fill="gray"/>
  <path d="M429.9,66.1h-1.4V69h-3.3V66.1h-5.5V63.6l4.4-7.6h4.4v7.4h1.4Zm-4.7-2.7V61.9c0-.9.1-2.2.1-3.1h-.1l-1.1,2.3L423,63.4Z" transform="translate(-0.1)" fill="#ccc"/>
  <g>
    <rect x="319.6" y="204.6" width="123.2" height="39.19" rx="5" ry="5" fill="#666"/>
    <rect x="319.6" y="199.8" width="123.2" height="39.19" rx="5" ry="5" fill="gray"/>
    <g>
      <path d="M361.8,212.2a21,21,0,0,1,3.9-.3c2.2,0,3.5.4,4.6,1.2a3.5,3.5,0,0,1,1.4,3,4,4,0,0,1-2.8,3.7h0a4.3,4.3,0,0,1,3.4,4.2,4.5,4.5,0,0,1-1.4,3.3c-1.2,1.1-3.1,1.6-5.8,1.6l-3.3-.2Zm2.2,6.8h2c2.3,0,3.6-1.2,3.6-2.8s-1.5-2.7-3.7-2.7h-1.9Zm0,8h1.8c2.2,0,4.3-.8,4.3-3.3s-2-3.2-4.3-3.2h-1.8Z" transform="translate(-0.1)" fill="#ccc"/>
      <path d="M377.4,212v9.9c0,3.7,1.7,5.3,3.9,5.3s4.1-1.6,4.1-5.3V212h2.2v9.8c0,5.1-2.7,7.2-6.3,7.2s-6-2-6-7.1V212Z" transform="translate(-0.1)" fill="#ccc"/>
      <path d="M395,228.7v-7.1l-5.3-9.6h2.5l2.4,4.6,1.7,3.4h0c.5-1.1,1-2.2,1.7-3.4l2.4-4.6h2.5l-5.6,9.6v7.1Z" transform="translate(-0.1)" fill="#ccc"/>
    </g>
  </g>
  <g>
    <path d="M376.5,163.1a5.7,5.7,0,0,0-3.9-1.8c-1.6,0-2.4.4-2.4,1.9s9.6,3,9.6,9.7a7.1,7.1,0,0,1-5.8,7.4v3.9h-4.2v-3.7a12.6,12.6,0,0,1-6.6-2.8l2.7-4.3a8.5,8.5,0,0,0,5.1,2.1c1.9,0,2.6-.6,2.6-2.1,0-3-9.6-3.4-9.6-9.9a6.8,6.8,0,0,1,5.7-7.1v-3.9h4.2v3.8a9.7,9.7,0,0,1,5.6,3.1Z" transform="translate(-0.1)" fill="#999"/>
    <path d="M397.3,162.9a5.4,5.4,0,0,0-3.6-1.6c-2.3,0-4.1,1.6-4.3,6.4a6.2,6.2,0,0,1,4.4-2.3c4,0,7.1,2.2,7.1,7.3s-3.7,8-8.2,8-9.2-3.3-9.2-11.8,4.7-12.6,9.7-12.6a10.2,10.2,0,0,1,7.4,3Zm-2.2,9.7c0-2.3-1.3-2.8-2.6-2.8a3.5,3.5,0,0,0-3,2c.5,3.3,1.9,4.1,3.1,4.1S395.1,175.1,395.1,172.6Z" transform="translate(-0.1)" fill="#999"/>
    <path d="M405.8,173.3a7.5,7.5,0,0,0,4.8,2.2c2.2,0,3.5-1,3.5-3a2.9,2.9,0,0,0-3.2-3,5.1,5.1,0,0,0-3.3,1.1l-2.7-1.8.6-12.1h14V162h-8.5l-.3,3.4a6,6,0,0,1,2.2-.4c4.1,0,7.6,2.3,7.6,7.3s-4.1,8.3-8.9,8.3a11.6,11.6,0,0,1-8.5-3.3Z" transform="translate(-0.1)" fill="#999"/>
    <path d="M423.5,168.3c0-8.1,3.6-12.1,8.8-12.1s8.8,4.1,8.8,12.1-3.6,12.3-8.8,12.3S423.5,176.3,423.5,168.3Zm11.5,0c0-6.2-1.3-7.2-2.7-7.2s-2.7,1-2.7,7.2,1.3,7.4,2.7,7.4S435,174.5,435,168.3Z" transform="translate(-0.1)" fill="#999"/>
  </g>
  <path d="M105.4,166.6h-61a6.7,6.7,0,0,1-6.7-6.7V105.7A6.7,6.7,0,0,1,44.4,99h61a6.7,6.7,0,0,1,6.7,6.7v54.2A6.7,6.7,0,0,1,105.4,166.6Zm-61-66.4a5.5,5.5,0,0,0-5.5,5.5v54.2a5.5,5.5,0,0,0,5.5,5.5h61a5.5,5.5,0,0,0,5.5-5.5V105.7a5.5,5.5,0,0,0-5.5-5.5Z" transform="translate(-0.1)" fill="#b3b3b3"/>
  <g>
    <path d="M60.3,133.9v17.6a1.9,1.9,0,1,0,3.8,0V133.9a1.9,1.9,0,1,0-3.8,0Zm0,0" transform="translate(-0.1)" fill="#b3b3b3"/>
    <path d="M54.4,153.4h4.2V132.5c0-.1,0-.2,0-.3a16.3,16.3,0,1,1,32.5,0,2.3,2.3,0,0,0,0,.4v20.8h4.2a5.4,5.4,0,0,0,5.3-5.5V137.1a5.4,5.4,0,0,0-3.8-5.2,21.9,21.9,0,0,0-43.9,0,5.4,5.4,0,0,0-3.8,5.2V148a5.4,5.4,0,0,0,5.3,5.5Zm0,0" transform="translate(-0.1)" fill="#b3b3b3"/>
    <path d="M85.5,133.9v17.6a1.9,1.9,0,1,0,3.8,0V133.9a1.9,1.9,0,1,0-3.8,0Zm0,0" transform="translate(-0.1)" fill="#b3b3b3"/>
  </g>
  <path d="M188.3,177.4a5,5,0,0,1,5,5v55.1a5,5,0,0,1-5,5h-62a5,5,0,0,1-5-5V182.4a5,5,0,0,1,5-5h62m0-1.2h-62a6.2,6.2,0,0,0-6.2,6.2v55.1a6.2,6.2,0,0,0,6.2,6.2h62a6.2,6.2,0,0,0,6.2-6.2V182.4a6.2,6.2,0,0,0-6.2-6.2Z" transform="translate(-0.1)" fill="#b3b3b3"/>
  <path d="M160.7,193.3l13.2,13.2-6.8,6.8a22.2,22.2,0,0,1-7.9,4.4,2,2,0,0,1-.5.8,2.1,2.1,0,0,1-2.9,0h-.1L151,223l-2.2-2.2-11.6,11.6-3-3,11.6-11.6-2.2-2.2,4.6-4.6a2.1,2.1,0,0,1,.3-2.6l.7-.5a24.8,24.8,0,0,1,4.7-7.9Zm12.5,10.4-9.7-9.7,8.2-8.2,9.7,9.7Zm1.3-8.7,2,2,1.5-1.5-2-2Zm-2.7-2.7,1.5-1.5-2-2-1.5,1.5Zm0,0" transform="translate(-0.1)" fill="#b3b3b3"/>
  <path d="M105.9,177.4a5,5,0,0,1,5,5v55.1a5,5,0,0,1-5,5h-62a5,5,0,0,1-5-5V182.4a5,5,0,0,1,5-5h62m0-1.2h-62a6.2,6.2,0,0,0-6.2,6.2v55.1a6.2,6.2,0,0,0,6.2,6.2h62a6.2,6.2,0,0,0,6.2-6.2V182.4a6.2,6.2,0,0,0-6.2-6.2Z" transform="translate(-0.1)" fill="#b3b3b3"/>
  <path d="M65.6,186.7l-8.1,8.1v12.3h4.9V210H57.5v19.4a3.9,3.9,0,0,0,3.9,3.9H86.2a3.9,3.9,0,0,0,3.9-3.9V186.7Zm-.2,13.9a1,1,0,0,1-1,1H63.3a1,1,0,0,1-1-1V194a1,1,0,0,1,1-1h1.2a1,1,0,0,1,1,1Zm4.6-4.4a1,1,0,0,1-1,1H67.9a1,1,0,0,1-1-1v-6.6a1,1,0,0,1,1-1H69a1,1,0,0,1,1,1Zm4.6,0a1,1,0,0,1-1,1H72.4a1,1,0,0,1-1-1v-6.6a1,1,0,0,1,1-1h1.2a1,1,0,0,1,1,1Zm4.6,0a1,1,0,0,1-1,1H77a1,1,0,0,1-1-1v-6.6a1,1,0,0,1,1-1h1.2a1,1,0,0,1,1,1Zm4.6,0a1,1,0,0,1-1,1H81.5a1,1,0,0,1-1-1v-6.6a1,1,0,0,1,1-1h1.2a1,1,0,0,1,1,1Zm4.6,0a1,1,0,0,1-1,1H86.1a1,1,0,0,1-1-1v-6.6a1,1,0,0,1,1-1h1.2a1,1,0,0,1,1,1Zm0,0" transform="translate(-0.1)" fill="#b3b3b3"/>
  <path d="M188.1,100.5a5,5,0,0,1,5,5v55.1a5,5,0,0,1-5,5h-62a5,5,0,0,1-5-5V105.4a5,5,0,0,1,5-5h62m0-1.2h-62a6.2,6.2,0,0,0-6.2,6.2v55.1a6.2,6.2,0,0,0,6.2,6.2h62a6.2,6.2,0,0,0,6.2-6.2V105.4a6.2,6.2,0,0,0-6.2-6.2Z" transform="translate(-0.1)" fill="#b3b3b3"/>
  <g>
    <path d="M140.6,145h33.1a4.9,4.9,0,0,0,4.9-4.9V118.7a4.9,4.9,0,0,0-4.9-4.9H140.6a4.9,4.9,0,0,0-4.9,4.9v21.4a4.9,4.9,0,0,0,4.9,4.9Zm-1-26.3a1,1,0,0,1,1-1h33.1a1,1,0,0,1,1,1v21.4a1,1,0,0,1-1,1H140.6a1,1,0,0,1-1-1Zm0,0" transform="translate(-0.1)" fill="#b3b3b3"/>
    <path d="M181.5,147H127.9v2.9a2.4,2.4,0,0,0,1.4,2.1,6.6,6.6,0,0,0,3.4.9h48.7a6.6,6.6,0,0,0,3.4-.9,2.4,2.4,0,0,0,1.4-2.1V147Zm-21.9,2.9h-4.9a.5.5,0,0,1,0-1h4.9a.5.5,0,1,1,0,1Zm0,0" transform="translate(-0.1)" fill="#b3b3b3"/>
  </g>
  <rect x="104.4" y="83.6" width="247.2" height="158.76" rx="5" ry="5" fill="#fff"/>
  <g>
    <path d="M207.3,113.8v-3.7l-2.8-5.1h1.3l1.2,2.4.9,1.8h0l.9-1.8,1.3-2.4h1.3l-2.9,5v3.7Z" transform="translate(-0.1)" fill="#807f7f"/>
    <path d="M217,110.6a3.1,3.1,0,0,1-3.1,3.3,3,3,0,0,1-3-3.2,3.1,3.1,0,0,1,3.1-3.3A3,3,0,0,1,217,110.6Zm-5,.1c0,1.4.8,2.4,1.9,2.4s1.9-1,1.9-2.4-.5-2.4-1.9-2.4S212,109.5,212,110.7Z" transform="translate(-0.1)" fill="#807f7f"/>
    <path d="M223.7,112.1c0,.7,0,1.2.1,1.7h-1v-1h0a2.4,2.4,0,0,1-2.1,1.2c-1,0-2.2-.5-2.2-2.8v-3.7h1.1V111c0,1.2.4,2,1.4,2a1.7,1.7,0,0,0,1.5-1,1.7,1.7,0,0,0,.1-.6v-3.9h1.1Z" transform="translate(-0.1)" fill="#807f7f"/>
    <path d="M228.4,109.2c0-.7,0-1.2-.1-1.7h1v1h0a2.2,2.2,0,0,1,2-1.2,1.9,1.9,0,0,1,1.8,1.3h0a2.6,2.6,0,0,1,.7-.8,2.1,2.1,0,0,1,1.4-.4c.8,0,2.1.5,2.1,2.7v3.7h-1.1v-3.6c0-1.2-.4-1.9-1.4-1.9a1.5,1.5,0,0,0-1.4,1,1.9,1.9,0,0,0-.1.6v3.9h-1.1v-3.8c0-1-.4-1.7-1.3-1.7a1.6,1.6,0,0,0-1.4,1.1,1.6,1.6,0,0,0-.1.6v3.8h-1.1Z" transform="translate(-0.1)" fill="#807f7f"/>
    <path d="M240.5,105.8a.7.7,0,0,1-1.4,0,.7.7,0,0,1,.7-.7A.7.7,0,0,1,240.5,105.8Zm-1.3,8.1v-6.3h1.1v6.3Z" transform="translate(-0.1)" fill="#807f7f"/>
    <path d="M247.7,107.5c0,.5-.1,1-.1,1.7v3.7a3.6,3.6,0,0,1-.9,2.9,3.3,3.3,0,0,1-2.3.8,4.1,4.1,0,0,1-2.1-.5l.3-.9a3.5,3.5,0,0,0,1.8.5c1.2,0,2-.6,2-2.2v-.7h0a2.2,2.2,0,0,1-2,1.1,2.8,2.8,0,0,1-2.7-3.1c0-2.1,1.4-3.3,2.8-3.3a2.1,2.1,0,0,1,2,1.1h0v-1Zm-1.2,2.5a1.6,1.6,0,0,0-.1-.5,1.6,1.6,0,0,0-1.6-1.2c-1.1,0-1.9.9-1.9,2.4s.6,2.3,1.9,2.3a1.7,1.7,0,0,0,1.6-1.2,2,2,0,0,0,.1-.6Z" transform="translate(-0.1)" fill="#807f7f"/>
    <path d="M249.6,104.6h1.1v3.9h0a2.1,2.1,0,0,1,.8-.8,2.4,2.4,0,0,1,1.2-.3c.8,0,2.2.5,2.2,2.7v3.7h-1.1v-3.6c0-1-.4-1.9-1.5-1.9a1.6,1.6,0,0,0-1.5,1.1,1.4,1.4,0,0,0-.1.5v3.8h-1.1Z" transform="translate(-0.1)" fill="#807f7f"/>
    <path d="M258.1,105.7v1.8h1.6v.9h-1.6v3.4c0,.8.2,1.2.9,1.2h.7v.9l-1,.2a1.6,1.6,0,0,1-1.2-.5,2.3,2.3,0,0,1-.4-1.6v-3.4h-1v-.9h1V106Z" transform="translate(-0.1)" fill="#807f7f"/>
    <path d="M263.7,113.8c0-.4.1-1.1.1-1.6v-7.6h1.1v4h0a2.3,2.3,0,0,1,2.1-1.2c1.6,0,2.7,1.3,2.7,3.2s-1.4,3.4-2.8,3.4a2.2,2.2,0,0,1-2.1-1.2h0v1Zm1.2-2.5a2.2,2.2,0,0,0,.1.4,1.8,1.8,0,0,0,1.7,1.3c1.2,0,1.9-1,1.9-2.4s-.7-2.3-1.9-2.3a1.8,1.8,0,0,0-1.7,1.4,2.2,2.2,0,0,0-.1.5Z" transform="translate(-0.1)" fill="#807f7f"/>
    <path d="M271.8,110.9a2,2,0,0,0,2.2,2.2,4.1,4.1,0,0,0,1.7-.3l.2.8a5.1,5.1,0,0,1-2.1.4,2.9,2.9,0,0,1-3.1-3.2c0-1.9,1.1-3.4,3-3.4s2.6,1.8,2.6,3a4.4,4.4,0,0,1,0,.5Zm3.4-.8a1.6,1.6,0,0,0-1.6-1.9,1.9,1.9,0,0,0-1.8,1.9Z" transform="translate(-0.1)" fill="#807f7f"/>
    <path d="M281.7,105.8a.7.7,0,0,1-1.4,0,.7.7,0,0,1,.7-.7A.7.7,0,0,1,281.7,105.8Zm-1.3,8.1v-6.3h1.1v6.3Z" transform="translate(-0.1)" fill="#807f7f"/>
    <path d="M283.5,109.2c0-.7,0-1.2-.1-1.7h1v1h0a2.3,2.3,0,0,1,2.1-1.2c.9,0,2.2.5,2.2,2.7v3.8h-1.1v-3.6c0-1-.4-1.9-1.5-1.9a1.6,1.6,0,0,0-1.5,1.2,1.7,1.7,0,0,0-.1.5v3.8h-1.1Z" transform="translate(-0.1)" fill="#807f7f"/>
    <path d="M292,105.7v1.8h1.6v.9H292v3.4c0,.8.2,1.2.9,1.2h.7v.9l-1,.2a1.6,1.6,0,0,1-1.2-.5,2.3,2.3,0,0,1-.4-1.6v-3.4h-1v-.9h1V106Z" transform="translate(-0.1)" fill="#807f7f"/>
    <path d="M295.5,110.9a2,2,0,0,0,2.2,2.2,4.1,4.1,0,0,0,1.7-.3l.2.8a5.1,5.1,0,0,1-2.1.4,2.9,2.9,0,0,1-3.1-3.2c0-1.9,1.1-3.4,3-3.4s2.6,1.8,2.6,3a4.4,4.4,0,0,1,0,.5Zm3.4-.8a1.6,1.6,0,0,0-1.6-1.9,1.9,1.9,0,0,0-1.8,1.9Z" transform="translate(-0.1)" fill="#807f7f"/>
    <path d="M301.4,109.5c0-.7,0-1.4-.1-2h1v1.2h.1a1.9,1.9,0,0,1,1.7-1.4h.3v1.1h-.4a1.6,1.6,0,0,0-1.5,1.5,3.3,3.3,0,0,0-.1.5v3.4h-1.1Z" transform="translate(-0.1)" fill="#807f7f"/>
    <path d="M306.2,110.9a2,2,0,0,0,2.2,2.2,4.1,4.1,0,0,0,1.7-.3l.2.8a5.1,5.1,0,0,1-2.1.4,2.9,2.9,0,0,1-3.1-3.2c0-1.9,1.1-3.4,3-3.4s2.6,1.8,2.6,3a4.4,4.4,0,0,1,0,.5Zm3.4-.8a1.6,1.6,0,0,0-1.6-1.9,1.9,1.9,0,0,0-1.8,1.9Z" transform="translate(-0.1)" fill="#807f7f"/>
    <path d="M311.9,112.7a3,3,0,0,0,1.5.5c.8,0,1.2-.4,1.2-.9s-.3-.8-1.2-1.2-1.7-1-1.7-1.8a1.9,1.9,0,0,1,2.2-1.8,3.1,3.1,0,0,1,1.5.4l-.3.8a2.5,2.5,0,0,0-1.3-.4c-.7,0-1.1.4-1.1.9s.4.8,1.2,1.1,1.7,1,1.7,1.9-.9,1.9-2.4,1.9a3.6,3.6,0,0,1-1.8-.4Z" transform="translate(-0.1)" fill="#807f7f"/>
    <path d="M318.6,105.7v1.8h1.6v.9h-1.6v3.4c0,.8.2,1.2.9,1.2h.7v.9l-1,.2a1.6,1.6,0,0,1-1.2-.5,2.3,2.3,0,0,1-.4-1.6v-3.4h-1v-.9h1V106Z" transform="translate(-0.1)" fill="#807f7f"/>
    <path d="M322.1,110.9a2,2,0,0,0,2.2,2.2,4.1,4.1,0,0,0,1.7-.3l.2.8a5.1,5.1,0,0,1-2.1.4,2.9,2.9,0,0,1-3.1-3.2c0-1.9,1.1-3.4,3-3.4s2.6,1.8,2.6,3a4.4,4.4,0,0,1,0,.5Zm3.4-.8a1.6,1.6,0,0,0-1.6-1.9,1.9,1.9,0,0,0-1.8,1.9Z" transform="translate(-0.1)" fill="#807f7f"/>
    <path d="M333.4,104.6v7.6c0,.6,0,1.2.1,1.6h-1v-1.1h0a2.3,2.3,0,0,1-2.1,1.2c-1.5,0-2.7-1.3-2.7-3.2s1.3-3.4,2.8-3.4a2.1,2.1,0,0,1,1.9,1h0v-3.8Zm-1.1,5.5a2,2,0,0,0-.1-.5,1.7,1.7,0,0,0-1.7-1.3c-1.2,0-1.9,1-1.9,2.4s.6,2.3,1.9,2.3a1.7,1.7,0,0,0,1.7-1.4,2,2,0,0,0,.1-.5Z" transform="translate(-0.1)" fill="#807f7f"/>
    <path d="M206.6,119.7a.7.7,0,0,1-1.4,0,.7.7,0,0,1,.7-.7A.7.7,0,0,1,206.6,119.7Zm-1.3,8.1v-6.3h1.1v6.3Z" transform="translate(-0.1)" fill="#807f7f"/>
    <path d="M208.3,123.2c0-.7,0-1.2-.1-1.7h1v1h0a2.3,2.3,0,0,1,2.1-1.2c.9,0,2.2.5,2.2,2.7v3.8h-1.1v-3.6c0-1-.4-1.9-1.5-1.9a1.6,1.6,0,0,0-1.5,1.2,1.6,1.6,0,0,0-.1.5v3.8h-1.1Z" transform="translate(-0.1)" fill="#807f7f"/>
    <path d="M219.7,119.7v1.8h1.6v.9h-1.6v3.4c0,.8.2,1.2.9,1.2h.7v.9l-1,.2a1.6,1.6,0,0,1-1.2-.5,2.3,2.3,0,0,1-.4-1.6v-3.4h-1v-.9h1V120Z" transform="translate(-0.1)" fill="#807f7f"/>
    <path d="M222.6,118.5h1.1v3.9h0a2.1,2.1,0,0,1,.8-.8,2.4,2.4,0,0,1,1.2-.3c.8,0,2.2.5,2.2,2.7v3.7h-1.1v-3.6c0-1-.4-1.9-1.5-1.9a1.6,1.6,0,0,0-1.5,1.1,1.4,1.4,0,0,0-.1.5v3.8h-1.1Z" transform="translate(-0.1)" fill="#807f7f"/>
    <path d="M230.5,124.8a2,2,0,0,0,2.2,2.2,4.1,4.1,0,0,0,1.7-.3l.2.8a5.1,5.1,0,0,1-2.1.4,2.9,2.9,0,0,1-3.1-3.2c0-1.9,1.1-3.4,3-3.4s2.6,1.8,2.6,3a4.2,4.2,0,0,1,0,.5Zm3.4-.8a1.6,1.6,0,0,0-1.6-1.9,1.9,1.9,0,0,0-1.8,1.9Z" transform="translate(-0.1)" fill="#807f7f"/>
    <path d="M236.2,126.6a3,3,0,0,0,1.5.5c.8,0,1.2-.4,1.2-.9s-.3-.8-1.2-1.2-1.7-1-1.7-1.8a1.9,1.9,0,0,1,2.2-1.8,3.1,3.1,0,0,1,1.5.4l-.3.8a2.5,2.5,0,0,0-1.3-.4c-.7,0-1.1.4-1.1.9s.4.8,1.2,1.1,1.7,1,1.7,1.9-.9,1.9-2.4,1.9a3.6,3.6,0,0,1-1.8-.4Z" transform="translate(-0.1)" fill="#807f7f"/>
    <path d="M242.1,124.8a2,2,0,0,0,2.2,2.2,4.1,4.1,0,0,0,1.7-.3l.2.8a5.1,5.1,0,0,1-2.1.4,2.9,2.9,0,0,1-3.1-3.2c0-1.9,1.1-3.4,3-3.4s2.6,1.8,2.6,3a4.4,4.4,0,0,1,0,.5Zm3.4-.8a1.6,1.6,0,0,0-1.6-1.9,1.9,1.9,0,0,0-1.8,1.9Z" transform="translate(-0.1)" fill="#807f7f"/>
    <path d="M250.8,123.5c0-.8,0-1.5-.1-2.1h1v1.1h0a2.5,2.5,0,0,1,2.2-1.2c1.5,0,2.7,1.3,2.7,3.2s-1.4,3.4-2.9,3.4a2.2,2.2,0,0,1-1.9-1h0v3.4h-1.1Zm1.1,1.7a2.6,2.6,0,0,0,.1.5,1.8,1.8,0,0,0,1.7,1.3c1.2,0,1.9-1,1.9-2.4s-.7-2.3-1.9-2.3a1.8,1.8,0,0,0-1.7,1.4,1.9,1.9,0,0,0-.1.5Z" transform="translate(-0.1)" fill="#807f7f"/>
    <path d="M258.2,123.4c0-.7,0-1.4-.1-2h1v1.2h.1a1.9,1.9,0,0,1,1.7-1.4h.3v1.1h-.4a1.6,1.6,0,0,0-1.5,1.5,3.3,3.3,0,0,0-.1.5v3.4h-1.1Z" transform="translate(-0.1)" fill="#807f7f"/>
    <path d="M268,124.6a3.1,3.1,0,0,1-3.1,3.3,3,3,0,0,1-3-3.2,3.1,3.1,0,0,1,3.1-3.3A3,3,0,0,1,268,124.6Zm-5,.1c0,1.4.8,2.4,1.9,2.4s1.9-1,1.9-2.4-.5-2.4-1.9-2.4S263,123.4,263,124.6Z" transform="translate(-0.1)" fill="#807f7f"/>
    <path d="M274.9,118.5v7.6c0,.6,0,1.2.1,1.6h-1v-1.1h0a2.3,2.3,0,0,1-2.1,1.2c-1.5,0-2.7-1.3-2.7-3.2s1.3-3.4,2.8-3.4a2.1,2.1,0,0,1,1.9,1h0v-3.8Zm-1.1,5.5a2,2,0,0,0-.1-.5,1.7,1.7,0,0,0-1.7-1.3c-1.2,0-1.9,1-1.9,2.4s.6,2.3,1.9,2.3a1.7,1.7,0,0,0,1.7-1.4,2,2,0,0,0,.1-.5Z" transform="translate(-0.1)" fill="#807f7f"/>
    <path d="M282,126.1c0,.7,0,1.2.1,1.7h-1v-1h0a2.4,2.4,0,0,1-2.1,1.2c-1,0-2.2-.5-2.2-2.8v-3.7h1.1V125c0,1.2.4,2,1.4,2a1.6,1.6,0,0,0,1.6-1.6v-3.9H282Z" transform="translate(-0.1)" fill="#807f7f"/>
    <path d="M288.4,127.6a4.2,4.2,0,0,1-1.8.4,3,3,0,0,1-3.1-3.2,3.2,3.2,0,0,1,3.4-3.3,3.8,3.8,0,0,1,1.6.3l-.3.9a2.7,2.7,0,0,0-1.3-.3,2.4,2.4,0,0,0,0,4.7,3.3,3.3,0,0,0,1.4-.3Z" transform="translate(-0.1)" fill="#807f7f"/>
    <path d="M291.3,119.7v1.8h1.6v.9h-1.6v3.4c0,.8.2,1.2.9,1.2h.7v.9l-1,.2a1.6,1.6,0,0,1-1.2-.5,2.3,2.3,0,0,1-.4-1.6v-3.4h-1v-.9h1V120Z" transform="translate(-0.1)" fill="#807f7f"/>
    <path d="M294.1,126.6a3,3,0,0,0,1.5.5c.8,0,1.2-.4,1.2-.9s-.3-.8-1.2-1.2-1.7-1-1.7-1.8a1.9,1.9,0,0,1,2.2-1.8,3.1,3.1,0,0,1,1.5.4l-.3.8a2.5,2.5,0,0,0-1.3-.4c-.7,0-1.1.4-1.1.9s.4.8,1.2,1.1,1.7,1,1.7,1.9-.9,1.9-2.4,1.9a3.6,3.6,0,0,1-1.8-.4Z" transform="translate(-0.1)" fill="#807f7f"/>
    <path d="M299.1,122.5a.8.8,0,1,1,1.5,0,.8.8,0,1,1-1.5,0Zm0,4.6a.8.8,0,1,1,1.5,0,.8.8,0,1,1-1.5,0Z" transform="translate(-0.1)" fill="#807f7f"/>
  </g>
  <g>
    <path d="M140,126.5h-5.6l-3.1-12.1-.6-2.7q-.4-2-.5-2.7-.1.9-.5,2.7l-.6,2.7L126,126.5h-5.5l-5.9-23.1h4.8l2.9,12.6q.8,3.5,1.1,6,.1-.9.4-2.8t.6-2.9l3.4-12.9h4.6l3.4,12.9q.2.9.6,2.7t.5,3.1.5-3.1q.3-1.8.6-3l2.9-12.6h4.8Z" transform="translate(-0.1)" fill="#807f7f"/>
    <path d="M159.5,126.5l-.9-2.4h-.1a7.1,7.1,0,0,1-2.5,2.1,8.1,8.1,0,0,1-3.4.6,5.4,5.4,0,0,1-4-1.5,5.6,5.6,0,0,1-1.5-4.1,4.7,4.7,0,0,1,2-4.1,11.4,11.4,0,0,1,5.9-1.5h3.1v-.8q0-2.7-2.7-2.7a12.5,12.5,0,0,0-5,1.3l-1.6-3.2a14.3,14.3,0,0,1,6.7-1.6,8.4,8.4,0,0,1,5.4,1.5,5.7,5.7,0,0,1,1.9,4.7v11.8Zm-1.4-8.2h-1.9a6,6,0,0,0-3.1.8,2.4,2.4,0,0,0-1,2.1q0,2,2.3,2a3.7,3.7,0,0,0,2.7-1,3.4,3.4,0,0,0,1-2.6Z" transform="translate(-0.1)" fill="#807f7f"/>
    <path d="M167.6,104.4q0-2.3,2.6-2.4t2.6,2.4a2.3,2.3,0,0,1-.7,1.7,2.7,2.7,0,0,1-2,.6Q167.6,106.7,167.6,104.4Zm5,22.2h-4.8V108.9h4.8Z" transform="translate(-0.1)" fill="#807f7f"/>
    <path d="M185.1,123a10.4,10.4,0,0,0,3-.6v3.6a10.8,10.8,0,0,1-4.4.8,5.4,5.4,0,0,1-4.2-1.5,6.4,6.4,0,0,1-1.3-4.4v-8.5h-2.3v-2l2.6-1.6,1.4-3.7H183v3.8H188v3.6H183V121a1.9,1.9,0,0,0,.6,1.5A2.3,2.3,0,0,0,185.1,123Z" transform="translate(-0.1)" fill="#807f7f"/>
    <path d="M191,124.3a2.6,2.6,0,0,1,.7-2,2.9,2.9,0,0,1,2.1-.7,2.8,2.8,0,0,1,2,.7,3.1,3.1,0,0,1,0,4,2.7,2.7,0,0,1-2,.7,2.8,2.8,0,0,1-2-.7A2.6,2.6,0,0,1,191,124.3Zm4.7-5.4h-3.8l-.8-15.4h5.5Z" transform="translate(-0.1)" fill="#807f7f"/>
  </g>
  <path d="M231.8,154.7,242.1,165l-5.3,5.3a17.4,17.4,0,0,1-6.2,3.5,1.6,1.6,0,0,1-.4.7,1.6,1.6,0,0,1-2.3,0h-.1l-3.6,3.6-1.7-1.7-9.1,9.1L211,183l9.1-9.1-1.7-1.7,3.6-3.6a1.6,1.6,0,0,1,.2-2l.6-.4a19.4,19.4,0,0,1,3.7-6.1Zm9.8,8.1-7.6-7.6,6.4-6.4,7.6,7.6Zm1.1-6.8,1.5,1.5,1.2-1.2-1.5-1.5Zm-2.1-2.1,1.2-1.2-1.5-1.5-1.2,1.2Zm0,0" transform="translate(-0.1)" fill="#4d4d4d"/>
  <g>
    <path d="M137.7,178.8h30.4a4.5,4.5,0,0,0,4.5-4.5V154.6a4.5,4.5,0,0,0-4.5-4.5H137.7a4.5,4.5,0,0,0-4.5,4.5v19.7a4.5,4.5,0,0,0,4.5,4.5Zm-.9-24.2a.9.9,0,0,1,.9-.9h30.4a.9.9,0,0,1,.9.9v19.7a.9.9,0,0,1-.9.9H137.7a.9.9,0,0,1-.9-.9Zm0,0" transform="translate(-0.1)" fill="#4d4d4d"/>
    <path d="M175.3,180.6H126.1v2.7a2.2,2.2,0,0,0,1.3,1.9,6.1,6.1,0,0,0,3.2.8h44.7a6,6,0,0,0,3.2-.8,2.2,2.2,0,0,0,1.3-1.9v-2.7Zm-20.1,2.7h-4.5a.4.4,0,0,1,0-.9h4.5a.4.4,0,1,1,0,.9Zm0,0" transform="translate(-0.1)" fill="#4d4d4d"/>
  </g>
  <g>
    <path d="M292.7,168.8v14.9a1.6,1.6,0,1,0,3.2,0V168.8a1.6,1.6,0,1,0-3.2,0Zm0,0" transform="translate(-0.1)" fill="#4d4d4d"/>
    <path d="M287.6,185.4h3.5v-18a13.8,13.8,0,1,1,27.5,0,1.9,1.9,0,0,0,0,.3v17.7h3.5a4.5,4.5,0,0,0,4.5-4.6v-9.3a4.6,4.6,0,0,0-3.2-4.4,18.6,18.6,0,0,0-37.2,0,4.6,4.6,0,0,0-3.2,4.4v9.3a4.6,4.6,0,0,0,4.5,4.6Zm0,0" transform="translate(-0.1)" fill="#4d4d4d"/>
    <path d="M314,168.8v14.9a1.6,1.6,0,1,0,3.2,0V168.8a1.6,1.6,0,1,0-3.2,0Zm0,0" transform="translate(-0.1)" fill="#4d4d4d"/>
  </g>
  <rect x="127.3" y="203.1" width="50.5" height="16.05" rx="5" ry="5" fill="#c46f14"/>
  <rect x="127.3" y="201.1" width="50.5" height="16.05" rx="5" ry="5" fill="#f7931d"/>
  <g>
    <path d="M144.3,210.8l-.7,2.2h-.9l2.3-6.8h1.1l2.3,6.8h-.9l-.7-2.2Zm2.2-.7-.7-2-.4-1.2h0l-.3,1.2-.7,2Z" transform="translate(-0.1)" fill="#fff"/>
    <path d="M149.4,206.2h1.9a3.9,3.9,0,0,1,2.8.9,3.2,3.2,0,0,1,1,2.5,3.6,3.6,0,0,1-1,2.7,4.2,4.2,0,0,1-3,1h-1.6Zm.9,6.1h.9a2.6,2.6,0,0,0,2.9-2.9,2.4,2.4,0,0,0-2.8-2.6h-1Z" transform="translate(-0.1)" fill="#fff"/>
    <path d="M156.2,206.2h1.9a3.9,3.9,0,0,1,2.8.9,3.2,3.2,0,0,1,1,2.5,3.6,3.6,0,0,1-1,2.7,4.2,4.2,0,0,1-3,1h-1.6Zm.9,6.1h.9a2.6,2.6,0,0,0,2.9-2.9,2.4,2.4,0,0,0-2.8-2.6h-1Z" transform="translate(-0.1)" fill="#fff"/>
  </g>
  <rect x="202.8" y="204.1" width="50.5" height="16.05" rx="5" ry="5" fill="#c46f14"/>
  <rect x="202.8" y="202.1" width="50.5" height="16.05" rx="5" ry="5" fill="#f7931d"/>
  <g>
    <path d="M219.8,211.8l-.7,2.2h-.9l2.3-6.8h1.1l2.3,6.8H223l-.7-2.2Zm2.2-.7-.7-2-.4-1.2h0l-.3,1.2-.7,2Z" transform="translate(-0.1)" fill="#fff"/>
    <path d="M225,207.2h1.9a3.9,3.9,0,0,1,2.8.9,3.2,3.2,0,0,1,1,2.5,3.6,3.6,0,0,1-1,2.7,4.2,4.2,0,0,1-3,1H225Zm.9,6.1h.9a2.6,2.6,0,0,0,2.9-2.9,2.4,2.4,0,0,0-2.8-2.6h-1Z" transform="translate(-0.1)" fill="#fff"/>
    <path d="M231.7,207.2h1.9a3.9,3.9,0,0,1,2.8.9,3.2,3.2,0,0,1,1,2.5,3.6,3.6,0,0,1-1,2.7,4.2,4.2,0,0,1-3,1h-1.6Zm.9,6.1h.9a2.6,2.6,0,0,0,2.9-2.9,2.4,2.4,0,0,0-2.8-2.6h-1Z" transform="translate(-0.1)" fill="#fff"/>
  </g>
  <rect x="279.6" y="204.1" width="50.5" height="16.05" rx="5" ry="5" fill="#c46f14"/>
  <rect x="279.6" y="202.1" width="50.5" height="16.05" rx="5" ry="5" fill="#f7931d"/>
  <g>
    <path d="M296.7,211.8l-.7,2.2H295l2.3-6.8h1.1l2.3,6.8h-.9l-.7-2.2Zm2.2-.7-.7-2-.4-1.2h0l-.3,1.2-.7,2Z" transform="translate(-0.1)" fill="#fff"/>
    <path d="M301.8,207.2h1.9a3.9,3.9,0,0,1,2.8.9,3.2,3.2,0,0,1,1,2.5,3.6,3.6,0,0,1-1,2.7,4.2,4.2,0,0,1-3,1h-1.6Zm.9,6.1h.9a2.6,2.6,0,0,0,2.9-2.9,2.4,2.4,0,0,0-2.8-2.6h-1Z" transform="translate(-0.1)" fill="#fff"/>
    <path d="M308.5,207.2h1.9a3.9,3.9,0,0,1,2.8.9,3.2,3.2,0,0,1,1,2.5,3.6,3.6,0,0,1-1,2.7,4.2,4.2,0,0,1-3,1h-1.6Zm.9,6.1h.9a2.6,2.6,0,0,0,2.9-2.9,2.4,2.4,0,0,0-2.8-2.6h-1Z" transform="translate(-0.1)" fill="#fff"/>
  </g>
  <rect x="191.5" y="152.4" width="0.9" height="62.93" fill="#efefef"/>
  <rect x="266" y="152.4" width="0.9" height="62.93" fill="#efefef"/>
</svg>
