<svg xmlns="http://www.w3.org/2000/svg" viewBox="0 0 431.8 261.4"><title>optimize</title><g style="isolation:isolate"><g id="Layer_2" data-name="Layer 2"><g id="Layer_1-2" data-name="Layer 1"><path d="M0,258.1c0-1.8,1-3.3,2.3-3.3H429.5c1.3,0,2.3,1.5,2.3,3.3s-1,3.3-2.3,3.3H2.3C1,261.4,0,259.9,0,258.1Z" fill="#ccdef2"/><path d="M113.5,111.1a6.9,6.9,0,0,1-6.7-5.5L100,72a4.2,4.2,0,1,1,8.2-1.7l6.5,32.1,14.4-2.2a4.2,4.2,0,0,1,1.3,8.3L114.5,111Z" fill="#e5785c"/><rect x="291.5" y="242.8" width="100.1" height="6.04" fill="#72504c"/><path d="M156.6,204.8a8.6,8.6,0,0,1-8.2-5.8L143,183.4a8.6,8.6,0,1,1,16.3-5.6l5.4,15.7a8.6,8.6,0,0,1-8.2,11.5Z" fill="#354242"/><path d="M151.3,184.7a3.2,3.2,0,0,1-3.1-2.2l-25-75.6a3.2,3.2,0,0,1,6.2-2l25,75.6a3.2,3.2,0,0,1-2.1,4.1Z" fill="#354242"/><path d="M163.9,221.2a6.5,6.5,0,0,1-6.5,6.5H147a6.5,6.5,0,0,1-6.5-6.5V198.4a6.5,6.5,0,0,1,6.5-6.5h10.4a6.5,6.5,0,0,1,6.5,6.5Z" fill="#354242"/><path d="M336.2,242.6c3.3,0,6,3.7,6,8.4s-2.7,8.4-6,8.4h-8.5V242.6Z" fill="#1d2021"/><ellipse cx="328.1" cy="250.9" rx="6" ry="8.4" fill="#2d3133"/><ellipse cx="328.1" cy="250.9" rx="2.4" ry="3.3" fill="#9099a3"/><path d="M349.7,242.6c3.3,0,6,3.7,6,8.4s-2.7,8.4-6,8.4h-8.5V242.6Z" fill="#3b3f42"/><ellipse cx="341.6" cy="250.9" rx="6" ry="8.4" fill="#2d3133"/><ellipse cx="341.6" cy="250.9" rx="2.4" ry="3.3" fill="#9099a3"/><rect x="221.7" y="235.3" width="160.9" height="7.92" fill="#ff881d"/><rect x="178.5" y="235.3" width="171.7" height="7.92" fill="#e2620c"/><rect x="377.5" y="235.3" width="5.2" height="7.92" fill="#ff881d"/><rect x="244.2" y="242.8" width="95.4" height="6.04" fill="#72504c"/><path d="M171.2,233.4h.2c4.9.2,8.8,5.9,8.8,12.9s-4,13-9,13h-6.3l-.8-25.9Z" fill="#3c4949"/><path d="M165.2,256.4c-3.1,0-5.9-4.2-6.1-9.4,0-.2,0-.5,0-.7,0-5.4,2.9-10.1,6.1-10.1h.1c2.9.1,6,4.2,6,10s-2.9,10.1-6.1,10.1Z" fill="#9099a3"/><path d="M165.2,239.2h0c.9,0,3.2,2.6,3.2,7.1s-2.2,7.2-3.2,7.2-3-2.3-3.2-6.6c0-.2,0-.4,0-.6,0-4.4,2.2-7.1,3.2-7.1Zm0-5.8c-5,0-9,5.8-9,13,0,.3,0,.5,0,.8.3,6.8,4.2,12.2,9,12.2s9-5.8,9-13-3.9-12.8-8.8-12.9Z" fill="#333332"/><path d="M157,233.4h.2c4.9.2,8.8,5.9,8.8,12.9s-4,13-9,13h-6.1l1.1-25.9Z" fill="#3c4949"/><path d="M151,256.4c-3.1,0-5.9-4.2-6.1-9.4,0-.2,0-.5,0-.7,0-5.4,2.9-10.1,6.1-10.1h.1c2.9.1,6,4.2,6,10s-2.9,10.1-6.1,10.1Z" fill="#9099a3"/><path d="M151,239.2h0c.9,0,3.2,2.6,3.2,7.1s-2.2,7.2-3.2,7.2-3-2.3-3.2-6.6c0-.2,0-.4,0-.6,0-4.4,2.2-7.1,3.2-7.1Zm0-5.8c-5,0-9,5.8-9,13,0,.3,0,.5,0,.8.3,6.8,4.2,12.2,9,12.2s9-5.8,9-13-3.9-12.8-8.8-12.9Z" fill="#333332"/><rect x="131.5" y="219.7" width="31" height="13.75" rx="3.2" ry="3.2" fill="#354242"/><path d="M190.9,234.3a6.3,6.3,0,0,1-6.4,7.1H152.7a6.1,6.1,0,0,1-6.2-7.1l5.4-41.5a8.4,8.4,0,0,1,8-7.1h19a8.1,8.1,0,0,1,7.8,7.1Z" fill="#ea6a13"/><path d="M200,241.4H162.4a6.1,6.1,0,0,1-6.2-7.1l5.4-41.5a8.4,8.4,0,0,1,8-7.1h11.9a9,9,0,0,1,2.9.5,10.6,10.6,0,0,1,6.5,6.3l13.9,42.1C206.1,238.3,203.9,241.4,200,241.4Z" fill="#b74d2c"/><path d="M208.7,240.5H161.9l2.2-7.9,2-7.1c1.1-4.4,3.7-7.1,7.6-7.1H192a9.4,9.4,0,0,1,8.7,7.1l3.2,7.1Z" fill="#ea6a13"/><path d="M206.8,238.5a3.2,3.2,0,0,1-3.2,3.2H130.1a3.3,3.3,0,0,1-3.3-3.2v-3.8a3.2,3.2,0,0,1,3.2-3.2h73.6a3.2,3.2,0,0,1,3.2,3.2Z" fill="#ea6a13"/><rect x="152.8" y="231.5" width="69.1" height="10.26" rx="3.2" ry="3.2" fill="#b74d2c"/><path d="M100.3,245.2a2.1,2.1,0,0,0,.4,1.8c1.1,4.1,12.4,2.7,12.9,2.3s1.7-11.7,1.5-12.3-7.7-.7-8.8-.8-3.9-1.5-3.4-1.1S100.6,244.2,100.3,245.2Z" fill="#332316"/><path d="M86.7,253.8c.8.8.3,5.4-1,5.6l-7.1.5a43.3,43.3,0,0,1-12.5-2.2l-4.8-1.9-4.7-1.3c-.2-.1-.2-2-.2-2s10.5-1.5,10.9-1.3l8.8,4.8,9.7-2Z" fill="#332316"/><path d="M66.9,136.9v10a7.2,7.2,0,0,0,8.1,7.1l21.7-2.5a9.3,9.3,0,0,0,8-9V119.7Z" fill="#602c34"/><path d="M100.2,247s-.3,2.3,3.9,2,5.9-5.1,5.9-5.1l6.4-.7a14.7,14.7,0,0,0,1.1,3.6c1.5,1.8,5.3,5.4,5.3,5.4l7.4-.3s.9,5.9-1.4,6.1l-8.7.7c-1.9.2-12-1.6-12-1.6s-8.5.8-8.5.7C99.2,249.6,100.2,247,100.2,247Z" fill="#332316"/><polygon points="99.6 259.3 112.6 258.6 112.5 256.6 106.7 255.7 99.3 256.1 99.6 259.3" fill="#332316"/><polygon points="56.7 255.9 64.1 258.2 64.9 257.1 65.1 255.5 63.9 254.4 56.4 253.8 56.7 255.9" fill="#332316"/><path d="M131.2,253h0a6.9,6.9,0,0,1-.1,1v.5h-.2v.2h-.2v.2h-1l-3.9.3-3.9.3h-3.1l-6.5-.9-3.7-.6s-8.9.8-8.9.7-.1-2.2-.1-3.1v-.4c.1-5.4,1-7.3,1-7.3s.6,3,5.1,2.2,4.1-3.7,4.4-5a3.3,3.3,0,0,0,.1-.5h1.5l3.7-.3h1.4l.2,1h0v.2h0v.2h0v.2h0v.3h0v.3h0a3.8,3.8,0,0,0,1,1.8c1.7,1.9,4.8,4.7,4.8,4.7a27,27,0,0,0,4.2,0c2-.1,4,.5,4.1,2.2A.8.8,0,0,0,131.2,253Z" fill="#4f342f"/><path d="M117.1,244.4l-17.9,8.2c.1-5.4,1-7.3,1-7.3s.6,3,5.1,2.2,4.1-3.7,4.4-5l5.3-.9Z" fill="#332316"/><path d="M65.5,243.5c-1.7-.4-6.3-1.9-6.9-.2a19.4,19.4,0,0,0-.7,4.5c0,.2,1.8,2.9,2.2,2.7s5.1-.5,5-.9S65.5,243.5,65.5,243.5Z" fill="#4f342f"/><path d="M59.2,242.8a2.9,2.9,0,0,0-.1,1.7c1.1,4.1,12.4,2.7,12.9,2.3s1.7-11.7,1.5-12.3-7.7-.7-8.8-.8-3.9-1.5-3.4-1.1S59.5,241.8,59.2,242.8Z" fill="#332316"/><path d="M86,257.3c-2.2.3-6.8.4-6.8.4H76.4c-2.8-.2-9.8-1.4-12.3-2.6a36.4,36.4,0,0,0-4.8-1.6l-3-.9a32.5,32.5,0,0,1,.6-4.4,19.5,19.5,0,0,1,.9-3.3,7.3,7.3,0,0,1,.8-1.7c-.1.3-1.1,3.2,3.6,2.9s4.1-4.1,4.1-4.1l9.7.4s-.5,3.3-.5,3.4a6,6,0,0,0,.8,1.2,28.7,28.7,0,0,0,3.1,3.2h.1s3.6,1.9,5.9,2a1.8,1.8,0,0,1,1.8,2C87.4,255.6,86.9,257.2,86,257.3Z" fill="#4f342f"/><path d="M76.4,247c-.4-.5-1.3-.5-3.4-.2s-12.9,1.4-15-2h0l.8-1.8c-.1.3.6-1.4,4-.8s3.8-.2,3.8-.2l9.7.4s-.5,3.3-.5,3.4A6,6,0,0,0,76.4,247Z" fill="#332316"/><path d="M64.7,244.2c7.6,1.9,13.9,1.8,14.6.1s1.1-5.9,2-12.7l.4-3,.3-2.1.4-3c1.8-12.6,4.7-32.3,4.7-32.3,1.6-6.5.3-6.8,2.4-73.7l-21.3-1.8-1.5,7.5c-.5-.5-1.8,14.3-1.8,16.3,0,28.1.4,52.8.3,53.4l-4,27.2-.4,2.9-.3,2-.4,2.9-1.8,11.9S57,242.3,64.7,244.2Z" fill="#f68c1e"/><path d="M117.1,244.4s-4.8.6-8.9.8h0c-4,0-11.5,1-11.5,1L96,235v-3.3h0v-5.4h0l-.2-2.7v-.4L93.9,195a40.9,40.9,0,0,0-.6-4.2c-2.5-9.3-4-31-3.9-37.5L77.8,118.6l22.2-5.5s1.9,14.1,4.8,27.1c4,17.6,9.9,46.9,10.1,51.3l1.1,28.4v9.9h0v3.6Z" fill="#f68c1e"/><path d="M100.6,88.7l-1.2-6.6c-1.2-6.4-2.8-13.4-3.8-17.5l-1.6-6.5s-4.4-4.4,1.7-4.4,11.6,5.7,12.9,12.4,4.2,20.1,4.2,20.1Z" fill="#ccc"/><polygon points="107.9 87.3 103.5 66.2 95.1 89.6 107.9 87.3" fill="#555" opacity="0.5"/><path d="M65.3,137.1l.5,15.2c.2,4.4,3.5,1.5,7.9.9l23.2-3.5a9.7,9.7,0,0,0,8-9.3v-25Z" fill="#f68c1e"/><path d="M76.7,53.7H95c5.9,0,10.6,5.4,10.6,11.8,0,0-1.1,53.4-1.3,57.4,0,.4-1,1.2-1,1.2s2.8-1.9-12.8-1.8c-18.2.1-25.5,17.1-25.5,17.1V65.2C65,58.8,70.8,53.7,76.7,53.7Z" fill="#ccc"/><polygon points="75.6 69.4 74 69 73.5 69 68.2 72.5 66.5 94.5 69.2 100.8 81.9 95.9 82.5 79 75.6 69.4" fill="#555" opacity="0.5"/><path d="M105.4,94s-.2,12.4-.5,30.6c0,0-39.9,31.8-39.9,16,0-.5,0-1-.1-1.7s0-.6,0-.9c-.4-12.6.3-51,.3-51l3.7,1.6v6.5a32.7,32.7,0,0,1,5.1-.3l1.5-.2c6.3-2.2,4.4-18.8,4.4-23.6h22.5C102.3,94,102.8,94,105.4,94Z" fill="#f68c1e"/><path d="M80.6,115.1c-8,0-15.7,7.7-15.7,22.9V84.8l4,3.9v6.5a32.7,32.7,0,0,1,5.1-.3l1.5-.2,1.1,2.1c.4,14.7,26.9,4.9,26.9,9.4C103.4,115.7,95.6,115.1,80.6,115.1Z" fill="#bf6819"/><path d="M69.9,25.7c.6,9,2.9,11.4,6.4,11.4s5.3-4,5.2-4.9-1.1-6.4-2-6.7S69.9,25.7,69.9,25.7Z" fill="#8e3925"/><path d="M78.1,35.2c-.6-1.1-.9,2.5-.9,2.1-.1-7.6-6.7-2-7.2-10.4s-.5-7.3-.7-10.8c-.4-7,3.7-14.4,18.6-14.2,8.3.1,10.4,3.3,12.3,7.5,3.5,7.9.7,18,.7,18Z" fill="#8e3925"/><path d="M91.5,54.3s.1,2.9-4.7,2.9A11.8,11.8,0,0,1,79,54.3V39.7L91.5,39Z" fill="#ffb287"/><path d="M91.5,51.2c-3.3.4-12.4-.8-12.4-2.9S79,36.6,79,36.6H91.5Z" fill="#e5785c"/><path d="M102.3,31.9c0,2.9-2.5,9.5-4.1,11.5s-1.6,2.8-3.7,3.4-3,1-3,2-2.4-1.1-3.2-1.1c-9.5,0-14.3-10.3-14.3-17.3L77,21.2c0-7.7,5.1-13.2,12.5-13.1s13.4,5.1,13.4,12.8Z" fill="#e5785c"/><path d="M103.1,20.6v3l-.3,8.3c-.3,8-2.1,15.5-11.9,15.4S78.5,35.4,78.8,27.8l.5-6.7c0-.3,0-.6,0-.8.2-10,4.3-13.6,11.4-13.6C100.4,6.7,103.3,12.9,103.1,20.6Z" fill="#ffb287"/><path d="M94.4,33.8c1.4,0,2.6-.8,2.5-1.6s-.3-.6-.9-.4a4.7,4.7,0,0,1-1.6.3,4.6,4.6,0,0,1-1.5-.3c-.9-.3-1.2.1-1.2.4S93,33.7,94.4,33.8Z" fill="#e5785c"/><path d="M78.9,27.1c.2,2.9-1.3,5.3-3.2,5.5s-3.8-2-4-4.9.9-5.1,2.9-5.4S78.7,24.2,78.9,27.1Z" fill="#e5785c"/><path d="M87.3,26.5c0,.7.6,2.2,1.2,2.2s1.2-1.5,1.2-2.2-.6-2.2-1.2-2.2S87.3,25.8,87.3,26.5Z" fill="#422b27"/><path d="M98.3,26.6c0,.7.6,2.2,1.2,2.2s1.2-1.5,1.2-2.2-.6-2.2-1.2-2.2S98.3,26,98.3,26.6Z" fill="#422b27"/><path d="M85.2,22.2a.8.8,0,0,1,0-1.5h5.6a.8.8,0,1,1,0,1.5H85.2Z" fill="#8e3925"/><path d="M102.5,22.6h-.1l-4.8-.3a.8.8,0,1,1,.1-1.5l4.8.3a.8.8,0,0,1-.1,1.5Z" fill="#8e3925"/><path d="M75.9,20.1a14,14,0,0,1,5-10.8c-1.5-1.8-2-4.5-1.7-4.8a13.7,13.7,0,0,1,15.1-.8c5.4,3.1,7.9,5.2,7,7.4h0a5.1,5.1,0,0,1-4.3,3.3c-6.9,0-6.8-4.1-11.9-3.7-2,.2-5.1,1.4-5.1,6.5A74.5,74.5,0,0,1,79,28.4c-1.6.1-1.6-.9-1.6-.9,0-2.9-.4-4.5-2.3-5.4Z" fill="#8e3925"/><path d="M93.2,40h0a7.5,7.5,0,0,1-4.1-.8.8.8,0,1,1,1-1.4,6.6,6.6,0,0,0,3.1.5,5.2,5.2,0,0,0,2.6-.5.8.8,0,0,1,1,1.4A6.3,6.3,0,0,1,93.2,40Z" fill="#e5785c"/><path d="M96.1,148.7h0Z" fill="#602c34"/><path d="M96.1,148.1h0Z" fill="#602c34"/><path d="M97.8,152.6c-.5-3.3-1.3-6.5-1.3-6.5-1.2,4-5.8,4.9-8.3,4.8V160l5,30.7.2.8C92.4,180.8,99.1,160.5,97.8,152.6Z" fill="#bf6819"/><path d="M96.1,147.5h0Z" fill="#602c34"/><path d="M96.3,150.7h0Z" fill="#602c34"/><path d="M96.2,150h0Z" fill="#602c34"/><path d="M96.1,149.4h0Z" fill="#602c34"/><path d="M118.9,104.6a4.2,4.2,0,0,1-3.8,4.5l-28,2.4H86.1a9.2,9.2,0,0,1-8.2-5.4L72.6,94.6l-2.1-7L65.2,75a4.2,4.2,0,0,1,7.7-3.2L79,86.3l2.4,2.3,6,14.1.5.3,26.6-2.2A4.2,4.2,0,0,1,118.9,104.6Z" fill="#ffb287"/><path d="M77,53.7c-13.6,0-16.5,8.1-16.4,14.9s8.3,29.1,8.3,29.1l14.3-4.9L75.6,68.9Z" fill="#ccc"/><path d="M76.7,53.7c6.5,0,8,10.4,7.9,17.2l-2.2,5-2.6-5c.1-6.8-1.5-17-8.8-16.6l2.8-.5Z" fill="#f68c1e"/><path d="M94.5,53.7a15.4,15.4,0,0,0-2.9,0h-.1v.5a1.9,1.9,0,0,1-.1.5C96.5,56.6,97.7,65,97.6,71l2.8,3.3,1.9-3.3C102.4,64.1,101,53.7,94.5,53.7Z" fill="#f68c1e"/><path d="M103.1,20.6v3c-.4-2.1-7.1-2.6-14.4-2.3-4.4.2-8.9.5-9,2.3.2-10,3.9-17,11.1-17C100.4,6.7,103.3,12.9,103.1,20.6Z" fill="#c67560" opacity="0.6" style="mix-blend-mode:multiply"/><path d="M102.3,16c-1.1-.8-2.2-.4-7.2-.4A57.5,57.5,0,0,0,79,17.9c-4.7,1.4-8.2,3.4-9.3,5.8-.5.4-1.2-4.2-1.3-7.5,0-.2,0-.4,0-.5a15.3,15.3,0,0,1,.5-3.8c1.4-5.4,6-10,14.3-11.3h.1L86.2,0h1.1a17,17,0,0,1,5.7.9h.3a14.3,14.3,0,0,1,8.2,7.8C103.2,12.5,103.1,16,102.3,16Z" fill="#828282"/><path d="M108,14.2h-5.6a19.5,19.5,0,0,1,.7,6.5h0C115.8,21.2,118.4,13.7,108,14.2Z" fill="#9e5416"/><path d="M69.7,23.6c1-2.3,4.6-4.3,9.3-5.8a57.5,57.5,0,0,1,16.1-2.2c5,0,6.1-.4,7.2.4s.9-3.6-.8-7.3A14.3,14.3,0,0,0,93.4,1c3.6,2.2,4,8.1,4.2,9.9S92,13.5,82.9,15.7,69.9,21.3,69.7,23.6Z" fill="#828282"/><path d="M62.2,213.5c6.7,3,14.5,5.1,21.2,3.6l.4-3c-4.3,1.2-9.2.4-13.3-.7a57.5,57.5,0,0,1-7.9-2.8Z" fill="#ede9e6" stroke="#ede9e6" stroke-linejoin="round" stroke-width="0.28"/><path d="M61.5,218.5c6.7,3,14.4,5.2,21.2,3.7l.4-3c-4.2,1.1-9.1.3-13.2-.8a57.6,57.6,0,0,1-8.1-2.8Z" fill="#ede9e6" stroke="#ede9e6" stroke-linejoin="round" stroke-width="0.28"/><g opacity="0.7"><rect x="77.4" y="72.1" width="12.4" height="8.79" rx="0.5" ry="0.5" fill="#631729"/></g><rect x="78.8" y="70.7" width="12.4" height="8.17" rx="0.5" ry="0.5" fill="#fff"/><rect x="83.6" y="67.5" width="2.7" height="3.74" rx="0.5" ry="0.5" fill="#b6b8bf"/><g opacity="0.6"><rect x="86.7" y="72.4" width="2.9" height="2.86" rx="0.5" ry="0.5" fill="#4c888e"/></g><path d="M290.9,242.6c3.3,0,6,3.7,6,8.4s-2.7,8.4-6,8.4h-8.5V242.6Z" fill="#1d2021"/><ellipse cx="282.8" cy="250.9" rx="6" ry="8.4" fill="#2d3133"/><ellipse cx="282.8" cy="250.9" rx="2.4" ry="3.3" fill="#9099a3"/><path d="M304.3,242.6c3.3,0,6,3.7,6,8.4s-2.7,8.4-6,8.4h-8.5V242.6Z" fill="#3b3f42"/><ellipse cx="296.2" cy="250.9" rx="6" ry="8.4" fill="#2d3133"/><ellipse cx="296.2" cy="250.9" rx="2.4" ry="3.3" fill="#9099a3"/><rect x="169.9" y="235.3" width="160.9" height="7.92" fill="#ff881d"/><rect x="126.7" y="235.3" width="171.7" height="7.92" fill="#ea6a13"/><rect x="177.1" y="233.9" width="92.7" height="9.32" fill="#c44e1a"/><rect x="325.6" y="235.3" width="5.2" height="7.92" fill="#ff881d"/><path d="M212.5,232.6l-16.8,1.9-3.5.4-6.5-.7-13.1-1.5,2-7.1c1.2-4.6,3.3-7.1,7.3-7.1h18.9a9.4,9.4,0,0,1,8.5,7Z" fill="#b74d2c"/><path d="M143.2,125c1.2,4-1.2,7.3-5.4,7.3H132a12.5,12.5,0,0,1-10.6-6.9l-5.7-13c-1.7-3.8.4-7,4.5-7h9.5a10.7,10.7,0,0,1,9.7,7.2Z" fill="none" stroke="#354242" stroke-linecap="round" stroke-linejoin="round" stroke-width="5.4"/><rect x="327.6" y="48.8" width="55.4" height="70.29" fill="#ffd18d"/><rect x="283.1" y="48.8" width="48.9" height="70.29" fill="#d88850"/><g opacity="0.5" style="mix-blend-mode:multiply"><rect x="282.1" y="83.3" width="100.9" height="1.08" fill="#c9804f"/></g><rect x="353.6" y="48.8" width="6.1" height="7.17" fill="#ce683c"/><rect x="284.5" y="76" width="5.7" height="5.16" fill="#c2d8ef" opacity="0.8"/><g opacity="0.2"><rect x="309.6" y="76" width="9.5" height="5.16" fill="#333332"/></g><g opacity="0.2"><rect x="320.4" y="76" width="4.9" height="5.16" fill="#333332"/></g><g opacity="0.2"><rect x="309.6" y="111.6" width="9.5" height="5.16" fill="#333332"/></g><g opacity="0.2"><rect x="320.4" y="111.6" width="4.9" height="5.16" fill="#333332"/></g><rect x="284.5" y="111.9" width="5.7" height="5.16" fill="#c2d8ef" opacity="0.8"/><rect x="354.2" y="83.2" width="6.1" height="7.17" fill="#ce683c"/><rect x="230.3" y="48.8" width="57.4" height="70.29" fill="#ba6145"/><rect x="198.5" y="48.8" width="38.2" height="70.29" fill="#d88850"/><g opacity="0.5" style="mix-blend-mode:multiply"><rect x="198.6" y="83.3" width="89.2" height="1.08" fill="#c9804f"/></g><rect x="262.8" y="48.8" width="6.1" height="6.62" fill="#a86951"/><g opacity="0.3"><rect x="216.9" y="76" width="4.9" height="5.16" fill="#333332"/></g><g opacity="0.3"><rect x="223.1" y="76" width="4.9" height="5.16" fill="#333332"/></g><g opacity="0.3"><rect x="229.2" y="76" width="4.9" height="5.16" fill="#333332"/></g><g opacity="0.3"><rect x="216.9" y="111.6" width="4.9" height="5.16" fill="#333332"/></g><g opacity="0.3"><rect x="223.1" y="111.6" width="4.9" height="5.16" fill="#333332"/></g><g opacity="0.3"><rect x="229.2" y="111.6" width="4.9" height="5.16" fill="#333332"/></g><rect x="263.3" y="83.2" width="6.1" height="8.28" fill="#a86951"/><rect x="271.9" y="48.8" width="57.4" height="70.29" fill="#ffd18d"/><rect x="240" y="48.8" width="38.2" height="70.29" fill="#d88850"/><g opacity="0.5" style="mix-blend-mode:multiply"><rect x="240.1" y="83.3" width="89.2" height="1.08" fill="#c9804f"/></g><rect x="299.8" y="48.8" width="6.1" height="7.17" fill="#ce683c"/><g opacity="0.3"><rect x="258.5" y="76" width="4.9" height="5.16" fill="#333332"/></g><g opacity="0.3"><rect x="264.7" y="76" width="4.9" height="5.16" fill="#333332"/></g><g opacity="0.3"><rect x="270.7" y="76" width="4.9" height="5.16" fill="#333332"/></g><g opacity="0.3"><rect x="258.5" y="111.6" width="4.9" height="5.16" fill="#333332"/></g><g opacity="0.3"><rect x="264.7" y="111.6" width="4.9" height="5.16" fill="#333332"/></g><g opacity="0.3"><rect x="270.7" y="111.6" width="4.9" height="5.16" fill="#333332"/></g><rect x="299.8" y="83.2" width="6.1" height="7.17" fill="#ce683c"/><rect x="327.6" y="118.6" width="55.4" height="105.85" fill="#ffd18d"/><rect x="283.1" y="118.6" width="48.9" height="105.85" fill="#d88850"/><g opacity="0.5" style="mix-blend-mode:multiply"><rect x="280.5" y="153.4" width="100.9" height="1.08" fill="#c9804f"/></g><g opacity="0.5" style="mix-blend-mode:multiply"><rect x="280.5" y="188.6" width="100.9" height="1.08" fill="#c9804f"/></g><rect x="353.6" y="153.2" width="6.1" height="7.17" fill="#ce683c"/><rect x="284.5" y="181.3" width="5.7" height="5.16" fill="#c2d8ef" opacity="0.8"/><g opacity="0.2"><rect x="309.6" y="181.3" width="9.5" height="5.16" fill="#333332"/></g><g opacity="0.2"><rect x="320.4" y="181.3" width="4.9" height="5.16" fill="#333332"/></g><g opacity="0.2"><rect x="309.6" y="145.6" width="9.5" height="5.16" fill="#333332"/></g><g opacity="0.2"><rect x="320.4" y="145.6" width="4.9" height="5.16" fill="#333332"/></g><g opacity="0.2"><rect x="309.6" y="216.9" width="9.5" height="5.16" fill="#333332"/></g><g opacity="0.2"><rect x="320.4" y="216.9" width="4.9" height="5.16" fill="#333332"/></g><rect x="284.5" y="217.2" width="5.7" height="5.16" fill="#c2d8ef" opacity="0.8"/><rect x="284.5" y="146" width="5.7" height="5.16" fill="#c2d8ef" opacity="0.8"/><rect x="354.2" y="188.5" width="6.1" height="7.17" fill="#ce683c"/><rect x="230.3" y="118.6" width="57.4" height="105.85" fill="#ba6145"/><rect x="198.5" y="118.6" width="38.2" height="105.85" fill="#d88850"/><g opacity="0.5" style="mix-blend-mode:multiply"><rect x="198.5" y="153.4" width="87.6" height="1.08" fill="#c9804f"/></g><g opacity="0.5" style="mix-blend-mode:multiply"><rect x="199.1" y="188.6" width="87" height="1.08" fill="#c9804f"/></g><rect x="262.8" y="153.3" width="6.1" height="6.62" fill="#a86951"/><g opacity="0.3"><rect x="216.9" y="181.3" width="4.9" height="5.16" fill="#333332"/></g><g opacity="0.3"><rect x="223.1" y="181.3" width="4.9" height="5.16" fill="#333332"/></g><g opacity="0.3"><rect x="229.2" y="181.3" width="4.9" height="5.16" fill="#333332"/></g><g opacity="0.3"><rect x="216.9" y="145.6" width="4.9" height="5.16" fill="#333332"/></g><g opacity="0.3"><rect x="223.1" y="145.6" width="4.9" height="5.16" fill="#333332"/></g><g opacity="0.3"><rect x="229.2" y="145.6" width="4.9" height="5.16" fill="#333332"/></g><g opacity="0.3"><rect x="216.9" y="216.9" width="4.9" height="5.16" fill="#333332"/></g><g opacity="0.3"><rect x="223.1" y="216.9" width="4.9" height="5.16" fill="#333332"/></g><g opacity="0.3"><rect x="229.2" y="216.9" width="4.9" height="5.16" fill="#333332"/></g><rect x="263.3" y="118.6" width="6.1" height="5.61" fill="#a86951"/><rect x="263.3" y="188.5" width="6.1" height="8.28" fill="#a86951"/><rect x="271.9" y="118.6" width="57.4" height="105.85" fill="#ffd18d"/><rect x="240" y="118.6" width="38.2" height="105.85" fill="#d88850"/><g opacity="0.5" style="mix-blend-mode:multiply"><rect x="238.5" y="153.4" width="90.6" height="1.08" fill="#c9804f"/></g><g opacity="0.5" style="mix-blend-mode:multiply"><rect x="238.5" y="188.6" width="90.6" height="1.08" fill="#c9804f"/></g><rect x="299.8" y="153.2" width="6.1" height="7.17" fill="#ce683c"/><g opacity="0.3"><rect x="258.5" y="181.3" width="4.9" height="5.16" fill="#333332"/></g><g opacity="0.3"><rect x="264.7" y="181.3" width="4.9" height="5.16" fill="#333332"/></g><g opacity="0.3"><rect x="270.7" y="181.3" width="4.9" height="5.16" fill="#333332"/></g><g opacity="0.3"><rect x="258.5" y="145.6" width="4.9" height="5.16" fill="#333332"/></g><g opacity="0.3"><rect x="264.7" y="145.6" width="4.9" height="5.16" fill="#333332"/></g><g opacity="0.3"><rect x="270.7" y="145.6" width="4.9" height="5.16" fill="#333332"/></g><g opacity="0.3"><rect x="258.5" y="216.9" width="4.9" height="5.16" fill="#333332"/></g><g opacity="0.3"><rect x="264.7" y="216.9" width="4.9" height="5.16" fill="#333332"/></g><g opacity="0.3"><rect x="270.7" y="216.9" width="4.9" height="5.16" fill="#333332"/></g><rect x="300.7" y="188.5" width="6.1" height="7.17" fill="#ce683c"/><g opacity="0.5" style="mix-blend-mode:multiply"><rect x="198.4" y="118.2" width="182.9" height="1.08" fill="#c9804f"/></g><rect x="354.2" y="118.6" width="6.1" height="7.17" fill="#ce683c"/><rect x="299.8" y="118.6" width="6.1" height="7.17" fill="#ce683c"/><rect x="377.4" y="224.3" width="18.3" height="5.67" fill="#ffdb80"/><rect x="267.1" y="224.3" width="110.5" height="5.85" fill="#e29a4b"/><polygon points="354.9 230 368.8 230 373.2 224.3 368.8 224.3 354.9 230" fill="#b87a53"/><polygon points="328.7 230 342.6 230 347 224.3 342.5 224.3 328.7 230" fill="#b87a53"/><polygon points="301.3 230 315.2 230 319.7 224.3 315.6 224.3 301.3 230" fill="#b87a53"/><polygon points="274.6 230 288.5 230 293 224.3 288.9 224.3 274.6 230" fill="#b87a53"/><rect x="323.9" y="224.3" width="18.3" height="5.67" fill="#ffdb80"/><rect x="350.6" y="224.3" width="18.3" height="5.67" fill="#ffdb80"/><rect x="297.1" y="224.3" width="18.3" height="5.67" fill="#ffdb80"/><rect x="184.6" y="224.3" width="92.2" height="5.9" fill="#e29a4b"/><rect x="233.1" y="234.4" width="12.4" height="12.86" fill="#72504c"/><rect x="195.9" y="234.4" width="12.4" height="12.86" fill="#72504c"/><rect x="366.6" y="237" width="12.1" height="11.78" fill="#b87a53"/><polygon points="366.6 248.8 376.6 236.1 364.7 236.1 366.6 245.1 364.7 247.8 366.6 248.8" fill="#72504c"/><rect x="324.9" y="236" width="12.1" height="12.86" fill="#b87a53"/><rect x="314.6" y="236" width="12.1" height="12.86" fill="#b87a53"/><rect x="268.2" y="236" width="12.1" height="12.86" fill="#b87a53"/><polygon points="378.6 248.8 395.7 248.8 395.7 233.1 378.6 236 378.6 248.8" fill="#efbb67"/><polygon points="324.4 248.8 341.5 248.8 341.5 233.4 324.4 236 324.4 248.8" fill="#efbb67"/><polygon points="270.4 248.8 287.5 248.8 287.5 233.2 270.4 236 270.4 248.8" fill="#efbb67"/><polygon points="258.6 248.8 270.6 248.8 270.6 236 258.6 233.6 258.6 248.8" fill="#c48e47"/><polygon points="184.6 248.8 196.7 248.8 196.7 236 184.6 233.1 184.6 248.8" fill="#c48e47"/><polygon points="221.6 248.8 233.7 248.8 233.7 236 221.6 232.5 221.6 248.8" fill="#c48e47"/><rect x="270.4" y="229.9" width="125.3" height="6.04" fill="#efbb67"/><rect x="184.6" y="229.9" width="86" height="6.04" fill="#c48e47"/><rect x="184.6" y="244.9" width="86" height="3.88" fill="#c48e47"/><polygon points="314.5 248.8 326.5 235.9 314.5 235.9 314.5 245 312.1 248.1 314.5 248.8" fill="#72504c"/><rect x="270.6" y="224.3" width="18.3" height="5.73" fill="#ffdb80"/><rect x="287.6" y="235.8" width="27.8" height="7.5" fill="#e2620c"/><rect x="341.6" y="236" width="27.7" height="7.5" fill="#e2620c"/><polygon points="287.6 235.8 287.6 243.3 294.3 235.8 287.6 235.8" fill="#c44e1a"/><polygon points="341.7 236 341.7 243.5 348.4 236 341.7 236" fill="#c44e1a"/><path d="M119.4,111h-1.5c-1.5-3.7-3.9-6-5-3.9-.2-1.6-.3-3.8-2.6-3.9,0,0-2.6-1.3-.3-1.8a42.9,42.9,0,0,1,8.6-1.3c3.6.1,4.1,1.8,4.6,5S122,111,119.4,111Z" fill="#ffb287"/><path d="M127.4,102.6c2.8.2,3.3,3.6,3.3,5s3,3.2,5,3.2,4.5-3.6,4.1-6.2-1.8-5.2-5.9-5a46.7,46.7,0,0,0-5.4.7A1.4,1.4,0,0,0,127.4,102.6Z" fill="#ffb287"/><rect x="311.8" y="235.8" width="14.8" height="7.5" fill="#ff881d"/><rect x="367.8" y="236" width="14.8" height="7.5" fill="#ff881d"/><path d="M125.6,108.9h-.2a1.1,1.1,0,0,1-.9-1.2,4.8,4.8,0,0,0-.9-3.6,5.2,5.2,0,0,0-3.7-1.8,1.1,1.1,0,0,1,.2-2.2,7.3,7.3,0,0,1,5.2,2.6,6.9,6.9,0,0,1,1.3,5.3A1.1,1.1,0,0,1,125.6,108.9Z" fill="#ffb287"/><path d="M95.4,222.4h0v-3.2a148.2,148.2,0,0,0,20.7-1.9v3.3A152.8,152.8,0,0,1,95.4,222.4Z" fill="#ede9e6"/><path d="M115.9,215.7a175.2,175.2,0,0,1-20.7,1.7V217h0l-.2-2.7a173.8,173.8,0,0,0,20.8-1.7v3.2Z" fill="#ede9e6"/><path d="M79,17.9C77.5,10.9,74.4.6,90.3.8s12.2,15.8,12.2,15.8Z" fill="#ccc"/><path d="M110.9,14.3c-4.1-.1-5.5,1.9-14.3,4.7-6.6,2.2-13-.1-17.6-1.1,1.6-1.4,17.4-3.8,26.2-3.9A57,57,0,0,1,110.9,14.3Z" fill="#f68c1e"/></g></g></g></svg>